<?xml version="1.0" encoding="utf-8"?>
<!-- Generator: Adobe Illustrator 25.2.1, SVG Export Plug-In . SVG Version: 6.00 Build 0)  -->
<svg version="1.1" id="Layer_1" xmlns="http://www.w3.org/2000/svg" xmlns:xlink="http://www.w3.org/1999/xlink" x="0px" y="0px"
	 viewBox="0 0 278.6 966" style="enable-background:new 0 0 278.6 966;" xml:space="preserve">
<style type="text/css">
	.st0{fill:#F4FAFE;}
</style>
<path class="st0" d="M193.5,304.5c-26.3-10.2-48.7-30.9-60.4-59.2c-9.8-23.7-10.5-48.8-3.8-71.6c12.6-31.3,14.1-64.3,1.7-94.3
	C111.1,31,59.9,2.5,0,0v966c17.6-13.9,30.6-26.6,40.3-35.2c17.2-15.2,31.9-32.9,42.3-52.5c25.3-47.6,14.2-100.3-21-139.5l0,0
	c-18.7-21.1-24.2-53.3-11.6-86.6c14.1-37.4,47.2-65.9,83.2-75.5c11.1-2.5,22.2-6,33.2-10.6c85.8-35.4,132.8-120.9,103.5-191.8
	C256.1,340.9,228.2,316.9,193.5,304.5z"/>
</svg>
