<?xml version="1.0" encoding="utf-8"?>
<!-- Generator: Adobe Illustrator 25.2.1, SVG Export Plug-In . SVG Version: 6.00 Build 0)  -->
<svg version="1.1" id="Layer_1" xmlns="http://www.w3.org/2000/svg" xmlns:xlink="http://www.w3.org/1999/xlink" x="0px" y="0px"
	 viewBox="0 0 417.1 666.7" style="enable-background:new 0 0 417.1 666.7;" xml:space="preserve">
<style type="text/css">
	.st0{fill:#F4FAFE;}
</style>
<path class="st0" d="M417.1,63.4c-7.6,4.1-16.3,6.9-25.8,7.9c-25.5,2.8-49.4-7.7-62.4-25.4c-3.7-5.6-8.1-10.9-13-15.9
	C277.3-8.5,216-10.4,178.7,26.9c-17.6,17.6-26.6,40.5-27.3,63.8c-1,18-9.1,36.7-24,51.6c-12.5,12.5-27.6,20.2-42.8,23
	c-21.5,1.9-41.9,10.7-57.7,26.5c-38.7,38.7-35.2,104.8,7.7,147.7c14.3,14.3,31.1,24.2,48.7,29.6c27.4,9.9,56.1,28.1,81.6,53.6
	c38.8,38.8,60.8,85.1,62,122.8l0,0c1.6,29.3,14,58.9,37.2,82.1c31.6,31.6,75.2,43.3,113.8,34.5c7.9-1.2,26.2-2.9,39.3,4.6
	L417.1,63.4L417.1,63.4z"/>
</svg>
