<?xml version="1.0" encoding="utf-8"?>
<!-- Generator: Adobe Illustrator 25.2.1, SVG Export Plug-In . SVG Version: 6.00 Build 0)  -->
<svg version="1.1" id="Layer_1" xmlns="http://www.w3.org/2000/svg" xmlns:xlink="http://www.w3.org/1999/xlink" x="0px" y="0px"
	 viewBox="0 0 336.2 858.8" style="enable-background:new 0 0 336.2 858.8;" xml:space="preserve">
<style type="text/css">
	.st0{fill:#F4FAFE;}
</style>
<path class="st0" d="M336.2,0c-25.1,4.5-48.9,16-68.6,34.8c-26.1,24.9-40.1,57.9-41.8,91.8c-2.1,26.1-14.5,53-36.7,74.2
	c-18.5,17.7-40.8,28.4-62.9,31.9c-31.3,2.1-61.3,14.1-84.8,36.5c-57.5,54.9-54.7,151.1,6.1,214.8c20.3,21.2,44.4,36.2,69.7,44.7
	c39.5,15.2,80.5,42.7,116.7,80.6c55.1,57.8,85.5,125.7,86,180.6l0,0c0.7,23.3,6.1,46.8,16.2,68.9L336.2,0L336.2,0z"/>
</svg>
