<?xml version="1.0" encoding="utf-8"?>
<!-- Generator: Adobe Illustrator 25.2.1, SVG Export Plug-In . SVG Version: 6.00 Build 0)  -->
<svg version="1.1" id="Layer_1" xmlns="http://www.w3.org/2000/svg" xmlns:xlink="http://www.w3.org/1999/xlink" x="0px" y="0px"
	 viewBox="0 0 924.8 903.4" style="enable-background:new 0 0 924.8 903.4;" xml:space="preserve">
<style type="text/css">
	.st0{fill:#F4FAFE;}
</style>
<path class="st0" d="M0,898.8c89.3-8.1,113.7-88.7,318.3-16.8c129.7,45.5,208.7,6,244-7c18.5-6.8,35.9-16.7,50.5-29.6
	c35.5-31.4,43.9-79.9,28.9-125.3l0,0c-7.9-24.4-1.7-53.5,19-77.3c23.3-26.7,58.7-39.2,90.2-34.8c9.6,1.8,19.5,2.7,29.7,2.7
	c79.3,0,144.2-55.9,144.2-126.1c0-33-14.2-63.1-37.5-85.7c-17.5-17.9-28.4-43.1-28.4-71.1c0-23.5,7.6-45,20.4-61.8
	c20.1-22,32.1-49.5,32.1-79.2c0-72.7-71.5-131.7-159.6-131.7c-29.3,0-56.8,6.5-80.5,17.9C633,89.5,584.8,99.4,532.3,99.4
	c-79.9,0-150-22.8-190-57.2l0,0C310.6,16.1,267.4,0,219.8,0c-65,0-121.8,30-152.4,74.5C58.2,85.9,31.2,115.3,0,107.2V898.8z"/>
</svg>
