<?xml version="1.0" encoding="utf-8"?>
<!-- Generator: Adobe Illustrator 25.2.1, SVG Export Plug-In . SVG Version: 6.00 Build 0)  -->
<svg version="1.1" id="Layer_1" xmlns="http://www.w3.org/2000/svg" xmlns:xlink="http://www.w3.org/1999/xlink" x="0px" y="0px"
	 viewBox="0 0 924.8 987.4" style="enable-background:new 0 0 924.8 987.4;" xml:space="preserve">
<style type="text/css">
	.st0{opacity:0.1;}
	.st1{fill:#334752;}
	.st2{fill:#E6E4EB;}
	.st3{fill:#314584;}
	.st4{fill:#5767C7;}
	.st5{fill:#C7E6FF;}
	.st6{fill:#5768C8;}
	.st7{fill:#334787;}
	.st8{opacity:0.1;fill:#334752;enable-background:new    ;}
	.st9{fill:#C3D0D8;}
	.st10{fill:#EDF2F6;}
	.st11{opacity:0.2;fill:#334752;enable-background:new    ;}
	.st12{fill:url(#SVGID_1_);}
	.st13{fill:url(#SVGID_2_);}
	.st14{fill:url(#SVGID_3_);}
	.st15{fill:url(#SVGID_4_);}
	.st16{fill:url(#SVGID_5_);}
	.st17{fill:url(#SVGID_6_);}
	.st18{fill:url(#SVGID_7_);}
	.st19{fill:#FFE600;}
	.st20{fill:url(#SVGID_8_);}
	.st21{fill:url(#SVGID_9_);}
	.st22{fill:url(#SVGID_10_);}
	.st23{fill:#2C4755;}
	.st24{fill:url(#SVGID_11_);}
	.st25{fill:url(#SVGID_12_);}
	.st26{fill:url(#SVGID_13_);}
	.st27{fill:url(#SVGID_14_);}
	.st28{fill:url(#SVGID_15_);}
	.st29{fill:url(#SVGID_16_);}
	.st30{fill:url(#SVGID_17_);}
	.st31{fill:url(#SVGID_18_);}
	.st32{fill:url(#SVGID_19_);}
	.st33{fill:url(#SVGID_20_);}
	.st34{fill:url(#SVGID_21_);}
	.st35{fill:#6A6D89;}
	.st36{fill:url(#SVGID_22_);}
	.st37{fill:url(#SVGID_23_);}
	.st38{fill:url(#SVGID_24_);}
	.st39{fill:url(#SVGID_25_);}
	.st40{fill:url(#SVGID_26_);}
	.st41{fill:url(#SVGID_27_);}
	.st42{fill:url(#SVGID_28_);}
	.st43{fill:url(#SVGID_29_);}
	.st44{fill:#FFFFFF;}
	.st45{fill:url(#SVGID_30_);}
	.st46{fill:url(#SVGID_31_);}
	.st47{fill:url(#SVGID_32_);}
	.st48{fill:#131316;}
	.st49{fill:url(#SVGID_33_);}
	.st50{fill:url(#SVGID_34_);}
	.st51{fill:url(#SVGID_35_);}
	.st52{fill:url(#SVGID_36_);}
	.st53{fill:url(#SVGID_37_);}
	.st54{fill:url(#SVGID_38_);}
	.st55{fill:url(#SVGID_39_);}
	.st56{fill:url(#SVGID_40_);}
	.st57{fill:url(#SVGID_41_);}
	.st58{fill:url(#SVGID_42_);}
	.st59{fill:url(#SVGID_43_);}
	.st60{fill:url(#SVGID_44_);}
	.st61{fill:url(#SVGID_45_);}
	.st62{fill:url(#SVGID_46_);}
	.st63{fill:url(#SVGID_47_);}
	.st64{fill:url(#SVGID_48_);}
	.st65{fill:url(#SVGID_49_);}
	.st66{fill:#6A3C20;}
	.st67{fill:url(#SVGID_50_);}
	.st68{fill:url(#SVGID_51_);}
	.st69{fill:url(#SVGID_52_);}
	.st70{fill:url(#SVGID_53_);}
	.st71{fill:url(#SVGID_54_);}
	.st72{fill:url(#SVGID_55_);}
	.st73{fill:url(#SVGID_56_);}
	.st74{fill:url(#SVGID_57_);}
	.st75{fill:url(#SVGID_58_);}
	.st76{fill:url(#SVGID_59_);}
	.st77{fill:url(#SVGID_60_);}
	.st78{fill:url(#SVGID_61_);}
	.st79{fill:url(#SVGID_62_);}
	.st80{fill:url(#SVGID_63_);}
	.st81{fill:url(#SVGID_64_);}
	.st82{fill:url(#SVGID_65_);}
</style>
<g>
	<path d="M924.8,4.9c-89.3,8.9-113.7,97-318.3,18.4c-129.7-49.8-208.7-6.6-244,7.6c-18.5,7.4-35.9,18.3-50.5,32.4
		c-35.5,34.3-43.9,87.3-28.9,137l0,0c7.9,26.6,1.7,58.5-19,84.5c-23.3,29.2-58.7,42.9-90.2,38.1c-9.6-1.9-19.5-2.9-29.7-2.9
		C65,320,0,381,0,457.7c0,36.1,14.2,68.9,37.5,93.6c17.5,19.5,28.4,47.1,28.4,77.7c0,25.6-7.6,49.1-20.4,67.6
		c-20.1,24.1-32.1,54.1-32.1,86.5c0,79.5,71.5,143.9,159.6,143.9c29.3,0,56.8-7.1,80.5-19.6c38.3-18,86.5-28.8,138.9-28.8
		c79.9,0,150,24.9,190,62.5l0,0c31.7,28.5,74.9,46.1,122.6,46.1c65,0,121.8-32.7,152.4-81.4c9.1-12.5,36.2-44.6,67.4-35.7L924.8,4.9
		L924.8,4.9z"/>
	<g>
		<g class="st0">
			<g>
				<path class="st1" d="M633.5,447c-13.7-7.8-35.9-7.5-49.3,0.8L400.3,561.4c-13.4,8.3-13.2,21.5,0.5,29.3l154.4,88.5
					c13.7,7.8,35.9,7.5,49.3-0.8l183.9-113.6c13.4-8.3,13.2-21.5-0.5-29.3L633.5,447z"/>
			</g>
		</g>
		<g>
			<path class="st2" d="M582.6,286.3l-162.8-93.7c-1.9-1.1-3.8-1.5-5.3-1.1c-3.7,0.5-8.3,3.4-13.7,6.2c0,0,0,0-0.1,0
				c-1.7,1-2.8,3.1-2.8,6.1v366.7c0,5.9,4.2,13.2,9.3,16.1l162.8,93.7c1.7,1,3.3,1.4,4.7,1.2c2.5-0.1,5.7-1.1,9.7-3.1
				c3.4-1.8,5.1-3.2,5.9-4.2c0-0.1,0.1-0.1,0.1-0.2c0,0,0,0,0,0c0.9-1.1,1.5-2.8,1.5-4.9V302.4C591.9,296.5,587.7,289.3,582.6,286.3
				z"/>
			<g>
				<g>
					<g>
						<path class="st3" d="M579.4,308.2c0-5.9-4.2-13.2-9.3-16.1l-162.8-93.7c-5.1-2.9-9.3-0.5-9.3,5.4v366.7
							c0,5.9,4.2,13.2,9.3,16.1l162.8,93.7c5.1,2.9,9.3,0.5,9.3-5.4V308.2z"/>
					</g>
				</g>
			</g>
			<g>
				<g>
					<g>
						<path class="st4" d="M475.4,602.6c-2-1.1-3.6-0.2-3.6,2.1v7.5c0,2.3,1.6,5.1,3.6,6.2l19.3,11.1c2,1.1,3.6,0.2,3.6-2.1v-7.5
							c0-2.3-1.6-5.1-3.6-6.2L475.4,602.6z"/>
					</g>
				</g>
			</g>
			<g>
				<g>
					<path class="st5" d="M407,225.2c-2.1-1.2-3.9-0.2-3.9,2.2v321.4c0,2.5,1.7,5.5,3.9,6.7L569.4,649c2.1,1.2,3.9,0.2,3.9-2.2
						V325.3c0-2.5-1.7-5.5-3.9-6.7L407,225.2z"/>
				</g>
			</g>
			<g>
				<g>
					<g>
						<path class="st6" d="M466.6,242.2c-1.5-0.8-2.6-0.1-2.6,1.5v2.6c0,1.7,1.2,3.7,2.6,4.6l45.6,26.2c1.4,0.8,2.6,0.2,2.6-1.5V273
							c0-1.7-1.2-3.7-2.6-4.6L466.6,242.2z"/>
					</g>
				</g>
			</g>
			<g>
				<path class="st7" d="M581.5,459c0,2.1,1.5,3,3.3,1.9l1.4-0.9c1.8-1.1,3.3-3.8,3.3-5.9v-15.3c0-2.1-1.5-3-3.3-1.9l-1.4,0.9
					c-1.8,1.1-3.3,3.8-3.3,5.9V459z"/>
			</g>
			<g>
				<g>
					<g>
						<path class="st7" d="M479.7,229.5c-1.7-1-4.5-0.9-6.2,0.1l-0.3,0.2c-1.7,1-1.7,2.7,0.1,3.7l36.6,21c1.7,1,4.5,0.9,6.2-0.1
							l0.3-0.2c1.7-1,1.7-2.7-0.1-3.7L479.7,229.5z"/>
					</g>
				</g>
			</g>
			<g>
				<path class="st7" d="M581.5,410.7c0,2.1,1.5,3,3.3,1.9l1.4-0.9c1.8-1.1,3.3-3.8,3.3-5.9v-61.3c0-2.1-1.5-3-3.3-1.9l-1.4,0.9
					c-1.8,1.1-3.3,3.8-3.3,5.9V410.7z"/>
			</g>
			
				<ellipse transform="matrix(0.8384 -0.545 0.545 0.8384 -52.0393 262.3521)" class="st6" cx="416.5" cy="218.9" rx="4.3" ry="6.3"/>
			<path class="st6" d="M424.6,227.4c0.5,0.7,1.3,1.1,1.8,0.8c0.5-0.3,0.5-1.2,0-2c-0.5-0.8-1.3-1.1-1.8-0.8
				S424.1,226.6,424.6,227.4z"/>
			<path class="st6" d="M563,306.9c0.7,1.1,1.9,1.6,2.7,1.1c0.8-0.5,0.8-1.8,0.1-2.9c-0.7-1.1-1.9-1.6-2.7-1.1
				C562.3,304.5,562.2,305.8,563,306.9z"/>
		</g>
		<g>
			<ellipse class="st8" cx="258.6" cy="578.4" rx="27.8" ry="16.1"/>
			<path class="st9" d="M284.2,549.6l-12.3-1l-8.7-0.8l-18,0.6l-11.4,0.8l-1.8,1.2l3.2,26.4c0,0,0,0,0,0c0,7.3,10.3,13.3,22.9,13.3
				c12.3,0,22.3-5.6,22.9-12.6c0,0,0,0,0,0L284.2,549.6z"/>
			<path class="st10" d="M284.3,550.1c0,7.6-11.7,13.7-26.1,13.7c-14.4,0-26.1-6.1-26.1-13.7c0-7.6,11.7-13.7,26.1-13.7
				C272.6,536.4,284.3,542.5,284.3,550.1z"/>
			<ellipse class="st11" cx="258.2" cy="550.1" rx="17" ry="8.9"/>
			
				<linearGradient id="SVGID_1_" gradientUnits="userSpaceOnUse" x1="254.83" y1="477.0079" x2="263.4849" y2="435.078" gradientTransform="matrix(1 0 0 -1 0 988)">
				<stop  offset="0" style="stop-color:#AFF57A"/>
				<stop  offset="1" style="stop-color:#54D169"/>
			</linearGradient>
			<path class="st12" d="M273.4,504.9c-0.2-8.2-6.9-14.9-15.2-14.9c-8.3,0-15,6.6-15.2,14.9h0V550h0c0,0,0,0.1,0,0.1
				c0,4.4,6.8,8,15.2,8c8.4,0,15.2-3.6,15.2-8c0,0,0-0.1,0-0.1h0L273.4,504.9L273.4,504.9L273.4,504.9z"/>
			
				<linearGradient id="SVGID_2_" gradientUnits="userSpaceOnUse" x1="256.5195" y1="489.7888" x2="268.1574" y2="447.1164" gradientTransform="matrix(1 0 0 -1 0 988)">
				<stop  offset="0" style="stop-color:#AFF57A"/>
				<stop  offset="1" style="stop-color:#54D169"/>
			</linearGradient>
			<path class="st13" d="M258.2,490c-8.3,0-15,6.6-15.2,14.9h0v0.3c1.6,1,3.5,1.9,6.2,3c9.3,3.9,14.3,0,18.8,4
				c1.9,1.7,3.7,3.7,5.4,5.7v-13.1h0C273.2,496.6,266.4,490,258.2,490z"/>
			
				<linearGradient id="SVGID_3_" gradientUnits="userSpaceOnUse" x1="256.5288" y1="460.6463" x2="270.2567" y2="421.7002" gradientTransform="matrix(1 0 0 -1 0 988)">
				<stop  offset="0" style="stop-color:#AFF57A"/>
				<stop  offset="1" style="stop-color:#54D169"/>
			</linearGradient>
			<path class="st14" d="M273.4,550.1c0,0,0-0.1,0-0.1h0v-36.8c-1,4.5-2.8,8.8-9.6,10.7c-12.1,3.4-12.8,11.5-20.6,16.7
				c-0.1,0.1-0.2,0.1-0.3,0.2v9.2h0c0,0,0,0.1,0,0.1c0,4.4,6.8,8,15.2,8C266.6,558,273.4,554.5,273.4,550.1z"/>
		</g>
		<g>
			<ellipse class="st8" cx="723.7" cy="669.7" rx="27.8" ry="16.1"/>
			<path class="st9" d="M749.3,640.9l-12.3-1l-8.7-0.8l-18,0.6l-11.4,0.8l-1.8,1.2l3.2,26.4c0,0,0,0,0,0c0,7.3,10.3,13.3,22.9,13.3
				c12.3,0,22.3-5.6,22.9-12.6c0,0,0,0,0,0L749.3,640.9z"/>
			<path class="st10" d="M749.3,641.4c0,7.6-11.7,13.7-26.1,13.7c-14.4,0-26.1-6.1-26.1-13.7c0-7.6,11.7-13.7,26.1-13.7
				C737.7,627.7,749.3,633.8,749.3,641.4z"/>
			<path class="st11" d="M740.2,641.4c0,4.9-7.6,8.9-17,8.9c-9.4,0-17-4-17-8.9c0-4.9,7.6-8.9,17-8.9
				C732.6,632.5,740.2,636.4,740.2,641.4z"/>
			
				<linearGradient id="SVGID_4_" gradientUnits="userSpaceOnUse" x1="719.9113" y1="385.6943" x2="728.5662" y2="343.7651" gradientTransform="matrix(1 0 0 -1 0 988)">
				<stop  offset="0" style="stop-color:#AFF57A"/>
				<stop  offset="1" style="stop-color:#54D169"/>
			</linearGradient>
			<path class="st15" d="M738.4,596.2c-0.2-8.2-6.9-14.9-15.2-14.9c-8.3,0-15,6.6-15.2,14.9h0v45.1h0c0,0,0,0.1,0,0.1
				c0,4.4,6.8,8,15.2,8c8.4,0,15.2-3.6,15.2-8c0,0,0-0.1,0-0.1h0L738.4,596.2L738.4,596.2z"/>
			
				<linearGradient id="SVGID_5_" gradientUnits="userSpaceOnUse" x1="721.6009" y1="398.4757" x2="733.2399" y2="355.7995" gradientTransform="matrix(1 0 0 -1 0 988)">
				<stop  offset="0" style="stop-color:#AFF57A"/>
				<stop  offset="1" style="stop-color:#54D169"/>
			</linearGradient>
			<path class="st16" d="M723.2,581.3c-8.3,0-15,6.6-15.2,14.9h0v0.3c1.6,1.1,3.5,1.9,6.2,3c9.3,3.9,14.3,0,18.8,4
				c1.9,1.7,3.7,3.7,5.4,5.7v-13.1h0C738.3,588,731.5,581.3,723.2,581.3z"/>
			
				<linearGradient id="SVGID_6_" gradientUnits="userSpaceOnUse" x1="721.6115" y1="369.3311" x2="735.3385" y2="330.3871" gradientTransform="matrix(1 0 0 -1 0 988)">
				<stop  offset="0" style="stop-color:#AFF57A"/>
				<stop  offset="1" style="stop-color:#54D169"/>
			</linearGradient>
			<path class="st17" d="M738.5,641.4c0,0,0-0.1,0-0.1h0v-36.8c-1,4.5-2.8,8.8-9.6,10.7c-12.1,3.4-12.8,11.5-20.6,16.7
				c-0.1,0.1-0.2,0.1-0.3,0.2v9.2h0c0,0,0,0.1,0,0.1c0,4.4,6.8,8,15.2,8C731.6,649.4,738.5,645.8,738.5,641.4z"/>
		</g>
		<g>
			<path class="st8" d="M659.2,729.8l-33.8-19.4c-0.2-0.1-0.4-0.2-0.6-0.3L592,691.4c-3-1.7-7.9-1.6-10.8,0.2l-40.3,24.9
				c-2.9,1.8-2.9,4.7,0.1,6.4l33.8,19.4c0.2,0.1,0.4,0.2,0.6,0.3l32.7,18.7c3,1.7,7.9,1.6,10.8-0.2l40.3-24.9
				C662.2,734.4,662.2,731.5,659.2,729.8z"/>
			<g>
				<path class="st2" d="M619.2,703.2c0-2.1-1.5-4.7-3.3-5.8l-68.8-39.6c-0.7-0.4-1.4-0.5-2-0.4c-1.8,0.4-4.3,2.2-4.3,2.2l0,0
					c-0.6,0.4-0.9,1.1-0.9,2.1v53.8c0,2.1,1.5,4.7,3.3,5.8L612,761c0.6,0.3,1.2,0.5,1.7,0.4c0.6,0,1.3-0.2,2.2-0.7
					c1.7-1,2.5-1.4,2.9-2c0.3-0.4,0.4-1,0.4-1.7L619.2,703.2L619.2,703.2z"/>
				<g>
					<g>
						
							<linearGradient id="SVGID_7_" gradientUnits="userSpaceOnUse" x1="588.0752" y1="300.5395" x2="552.9145" y2="223.1858" gradientTransform="matrix(1 0 0 -1 0 988)">
							<stop  offset="0" style="stop-color:#15EDED"/>
							<stop  offset="1" style="stop-color:#029CF5"/>
						</linearGradient>
						<path class="st18" d="M615.4,705.2c0-2.1-1.5-4.7-3.3-5.7l-68.8-39.6c-1.8-1.1-3.3-0.2-3.3,1.9v53.8c0,2.1,1.5,4.7,3.3,5.8
							L612,761c1.8,1.1,3.3,0.2,3.3-1.9V705.2z"/>
					</g>
				</g>
				<path class="st19" d="M586.8,726.8c3.9,6,10.4,8.7,14.4,6c4.1-2.7,4.2-9.7,0.3-15.6c-3.9-6-10.3-8.7-14.4-6
					C583,713.9,582.9,720.9,586.8,726.8z"/>
				
					<linearGradient id="SVGID_8_" gradientUnits="userSpaceOnUse" x1="582.6177" y1="265.5022" x2="567.1149" y2="231.1402" gradientTransform="matrix(1 0 0 -1 0 988)">
					<stop  offset="0" style="stop-color:#46EEAA"/>
					<stop  offset="1" style="stop-color:#2CBFC7"/>
				</linearGradient>
				<path class="st20" d="M615.4,759v-8.7l-15.3-8.6l-14.4-24.6l-7.5,5.9l-15.1-30c0,0-16.1,10.1-23.2,14.4v8.3
					c0,2.1,1.5,4.7,3.3,5.8L612,761C613.9,762,615.4,761.2,615.4,759z"/>
			</g>
		</g>
		<g>
			<g class="st0">
				<path class="st1" d="M160.3,704.6l17.3-10.7c2.2-1.3,2.2-3.4,0.1-4.7l-31.7-18.3c-2.3-1.3-6-1.3-8.2,0.1l-17.3,10.7
					c-2.2,1.3-2.2,3.4-0.1,4.7l31.7,18.3C154.4,706,158.1,706,160.3,704.6z"/>
			</g>
			<g>
				
					<linearGradient id="SVGID_9_" gradientUnits="userSpaceOnUse" x1="187.6005" y1="419.1601" x2="174.6189" y2="465.5653" gradientTransform="matrix(1 0 0 -1 0 988)">
					<stop  offset="0" style="stop-color:#F8A980"/>
					<stop  offset="1" style="stop-color:#FFDF75"/>
				</linearGradient>
				<path class="st21" d="M189.6,528.7c-1.2,3.9-3.8,13-6.6,18.5c-2.7,5.2-6.7,11.1-8.1,10.9c-1.2-0.2-0.3-0.6-1.6-0.4
					c-1.3,0.2-6.5,4.3-5.3,5.3c0,0.1,0,0.1,0,0.1s2.7,2.7,6.6,3.6c0.2,0.1,0.4,0.1,0.6,0.1c0.4,0,0.7-0.1,1-0.4
					c1.7-0.8,11.5-6.3,15.4-25.1c0.1-0.3,1.5-7.7,2.1-15.6C193.7,524.6,190.8,524.8,189.6,528.7z"/>
				<g>
					
						<linearGradient id="SVGID_10_" gradientUnits="userSpaceOnUse" x1="151.8934" y1="296.3432" x2="122.3489" y2="389.7521" gradientTransform="matrix(1 0 0 -1 0 988)">
						<stop  offset="0" style="stop-color:#F8A980"/>
						<stop  offset="1" style="stop-color:#FFDF75"/>
					</linearGradient>
					<path class="st22" d="M136.3,633c0.1,0.3,0.9,9-1.6,25.1c-2.5,16.1-2.6,16.8-2.9,19.9c-0.1,2.1,3.6,4.2,6.7,5.2
						c3.1,1,9.7,1.6,12.6-1.4c1.1-2.1-0.6-3.1-0.6-3.1s-2.9,0.3-4.2,0.3c-1-0.1-4.2-0.3-3.9-1.8s3.6-19.2,4.4-28.6
						c0.8-9.3,1.3-19.1,1.3-19.1l-2-4.6l-12.1-1.5L136.3,633z"/>
					<path class="st23" d="M154.7,679.3c-1.9-1-4.4-0.8-4.4-0.8s-1.1,0.2,0.3,1.1c0.8,0.3,1.2,3.1-3.4,3.7c-3.9,0.6-4.9,0.5-7-0.1
						c0,0-0.1,0-0.1,0c-7.8-2.2-7.6-7.6-8.4-6.7c-1.1,1.2-2.2,2.2-2.2,4.8c0,1.3,0.2,2.8,0.8,3.9c0.9,2,1.4,5.1,1.5,5.1v2.7
						c0,0.6,0.4,0.9,1,0.9c0.6,0,1.2-0.2,1.2-0.9v-3.4c0.2-1.8,0.8-3.1,0.8-3.1s0.7-1.5,1.7-0.1c1,1.5,2.5,3.9,5.8,3.9
						c3.4,0,5.7-1.2,9.6-4C156,683.4,156.7,680.3,154.7,679.3z"/>
				</g>
				<g>
					
						<linearGradient id="SVGID_11_" gradientUnits="userSpaceOnUse" x1="167.1124" y1="291.718" x2="137.5684" y2="385.1254" gradientTransform="matrix(1 0 0 -1 0 988)">
						<stop  offset="0" style="stop-color:#F8A980"/>
						<stop  offset="1" style="stop-color:#FFDF75"/>
					</linearGradient>
					<path class="st24" d="M151.5,637.7c0.1,0.3,0.9,9-1.6,25.1c-2.5,16.1-2.6,16.7-2.9,19.9c-0.1,2.1,3.6,4.2,6.7,5.2
						c3.1,1,9.7,1.6,12.6-1.4c1.1-2.1-0.6-3.1-0.6-3.1s-2.9,0.3-4.1,0.3c-1-0.1-4.2-0.3-3.9-1.8c0.4-1.5,3.6-19.2,4.4-28.6
						c0.8-9.3,1.3-19.1,1.3-19.1l-2-4.6l-12.1-1.5L151.5,637.7z"/>
					<path class="st23" d="M169.9,683.9c-1.9-1-4.4-0.8-4.4-0.8s-1.1,0.2,0.3,1.1c0.8,0.3,1.2,3.1-3.4,3.8c-3.9,0.6-5,0.5-7-0.1
						c0,0-0.1,0-0.1,0c-7.8-2.2-7.6-7.6-8.4-6.7c-1.1,1.2-2.2,2.2-2.2,4.8c0,1.3,0.2,2.8,0.8,3.9c0.9,2,1.4,5.1,1.5,5.1v2.7
						c0,0.6,0.4,0.9,1,0.9c0.6,0,1.2-0.2,1.2-0.9v-3.5c0.2-1.8,0.8-3.1,0.8-3.1s0.7-1.5,1.7-0.1c1,1.5,2.5,3.9,5.8,3.9
						c3.4,0,5.7-1.2,9.6-4C171.2,688,171.9,684.9,169.9,683.9z"/>
				</g>
				
					<linearGradient id="SVGID_12_" gradientUnits="userSpaceOnUse" x1="131.1382" y1="433.9252" x2="120.3938" y2="433.4403" gradientTransform="matrix(1 0 0 -1 0 988)">
					<stop  offset="0" style="stop-color:#F8A980"/>
					<stop  offset="1" style="stop-color:#FFDF75"/>
				</linearGradient>
				<path class="st25" d="M136.5,554.9c0,3.7,7.7,6.7-6.3,6.7c-3.5,0-5.8-3-6.5-6.7c-2.5-12.6,3-6.7,6.5-6.7
					C133.6,548.2,136.5,551.2,136.5,554.9z"/>
				
					<linearGradient id="SVGID_13_" gradientUnits="userSpaceOnUse" x1="115.7339" y1="456.9694" x2="130.7299" y2="457.4171" gradientTransform="matrix(1 0 0 -1 0 988)">
					<stop  offset="0" style="stop-color:#46EEAA"/>
					<stop  offset="1" style="stop-color:#2CBFC7"/>
				</linearGradient>
				<path class="st26" d="M137.9,536.9c0-1-3.9-14.8-3.9-15c0-0.2-1.4-3.2-2.2-4.8c0.7-3.6,8.5-11.5-1.4-8c-3.6,1.3-4.8,3.2-5.8,7.3
					c-0.5,1.9-0.6,3.7-0.4,5.1c0.2,1.1,0.2,9.3-1.1,16c-1.4,6.9-2.3,12.5,0.3,14.1c2.6,1.6,5.9,1.4,8.3,1.2c2.4-0.2,8-2.6,8-2.6
					S137.9,537.9,137.9,536.9z"/>
				
					<linearGradient id="SVGID_14_" gradientUnits="userSpaceOnUse" x1="116.1469" y1="484.9588" x2="169.8641" y2="362.006" gradientTransform="matrix(1 0 0 -1 0 988)">
					<stop  offset="0" style="stop-color:#46EEAA"/>
					<stop  offset="1" style="stop-color:#2CBFC7"/>
				</linearGradient>
				<path class="st27" d="M164.7,564.2c-2.5-4.1-2.5-4-2.5-6.5c0-2.5,0.1-10.4,1-17.1c0.8-6.7,3.1-8.7,2.7-13.6
					c-0.4-4.9,0-9.3-8.9-13.1c-4-1-13.9-5.3-17.4-5.6c-0.9-0.3-1.9-0.4-3-0.4c-4.4,0-8.1,2.4-9,5.7c-2,5.2-0.2,12.5,0.3,21.3
					c0.6,9.2,4.6,21.5,4.9,22.5c0.2,1,0.8,2.1-0.2,3.2c-4.2,4.9-5.2,11.9-5.2,11.9s0,0.1,0,0.2c-0.2,1.2-0.3,2.5-0.3,3.8
					c0,0.7,0,1.4,0.1,2.1c0,2.3,0.9,4.3,3.1,11.6c2.6,12.4,0.8,40.2,0.8,40.2c0,4.2,8,7.7,17.8,7.7c9.8,0,17.8-3.4,17.8-7.7
					c0,0,0.2-40,0.4-45.7C167.3,578.9,167.3,568.3,164.7,564.2z"/>
				<path class="st23" d="M185.6,546.2c-0.5,1.4-2.1,2.1-3.5,1.5l-24.8-9.7c-1.4-0.5-2.1-2.1-1.5-3.5l13.5-34.5
					c0.5-1.4,2.1-2.1,3.5-1.5l24.8,9.7c1.4,0.5,2.1,2.1,1.5,3.5L185.6,546.2z"/>
				
					<linearGradient id="SVGID_15_" gradientUnits="userSpaceOnUse" x1="177.9942" y1="486.4922" x2="176.5394" y2="433.6708" gradientTransform="matrix(1 0 0 -1 0 988)">
					<stop  offset="0" style="stop-color:#15EDED"/>
					<stop  offset="1" style="stop-color:#029CF5"/>
				</linearGradient>
				<polygon class="st28" points="183.1,545.3 183.1,545.3 183.1,545.3 158.3,535.6 171.7,501.1 196.5,510.8 183.1,545.3 				"/>
				
					<linearGradient id="SVGID_16_" gradientUnits="userSpaceOnUse" x1="153.1717" y1="461.4803" x2="182.1574" y2="426.1154" gradientTransform="matrix(1 0 0 -1 0 988)">
					<stop  offset="0" style="stop-color:#46EEAA"/>
					<stop  offset="1" style="stop-color:#2CBFC7"/>
				</linearGradient>
				<path class="st29" d="M172.7,554c0,0-1.5-3.2-3.8-8c-2.4-5-4.6-10.1-3.8-13.3c0.5-2.3,0.7-5,0.8-6.4c0-0.3,0-0.7,0-1
					c0-5.2-3.3-9.4-7.3-9.4c-3.9,0-7,3.9-7.3,8.8c0,0,0,0,0,0c-0.7,7,4.2,18.4,5.9,21.3c1.7,2.9,5.5,11.6,6.3,13.5
					c0.8,1.8,3.3,4.2,5.1,4.6c1.8,0.4,4.7-3.7,5.7-5.2C175,557.8,172.7,554,172.7,554z"/>
				<g>
					
						<linearGradient id="SVGID_17_" gradientUnits="userSpaceOnUse" x1="150.3805" y1="473.9963" x2="142.2653" y2="492.2415" gradientTransform="matrix(1 0 0 -1 0 988)">
						<stop  offset="0" style="stop-color:#F8A980"/>
						<stop  offset="1" style="stop-color:#FFDF75"/>
					</linearGradient>
					<path class="st30" d="M153.7,504.1l-0.5-0.8l-2.4-2.3l-5-0.3l-3.9,0.9c0,0,0.5,1.1,0.3,3.8c-0.3,2.7-0.7,3.8-0.9,4.2
						c-0.1,0.2-0.2,0.3-0.3,0.5c-0.3,1.4,1.9,3,4.9,3.6c3,0.6,5.6-0.1,5.8-1.5c0-0.1,0-0.3,0-0.4c0-0.4,0.1-1.1,0.1-2.2
						C152.2,506.3,153.7,504.1,153.7,504.1z"/>
					
						<linearGradient id="SVGID_18_" gradientUnits="userSpaceOnUse" x1="155.377" y1="480.2451" x2="155.7128" y2="523.4435" gradientTransform="matrix(1 0 0 -1 0 988)">
						<stop  offset="0" style="stop-color:#F8A980"/>
						<stop  offset="1" style="stop-color:#FFDF75"/>
					</linearGradient>
					<path class="st31" d="M167.2,479c0.1,1.4,0.2,6.9,0.2,8.4c0,8.7-2.5,15.1-6.8,16.3c-13.7,3.6-17-3.5-17-12.1
						c0-8.6,15.8-19.8,18.6-19.8C164.6,471.7,166.6,472.5,167.2,479z"/>
					
						<linearGradient id="SVGID_19_" gradientUnits="userSpaceOnUse" x1="144.1944" y1="517.7341" x2="155.0865" y2="487.6676" gradientTransform="matrix(1 0 0 -1 0 988)">
						<stop  offset="0" style="stop-color:#2C4755"/>
						<stop  offset="1" style="stop-color:#334752"/>
					</linearGradient>
					<path class="st32" d="M167.6,476.4c0,0.8-0.1,3.3-0.8,3.3c-3.4-0.1-6,1.5-4.9,5.6c0.7,2.9-0.1,8-3.5,15.5
						c-1,2.1,1.3,5.5-0.2,5.5c-0.5,0-1.7-0.6-1.8-3.7c0-4,2-7,2.2-8c2.2-8.1-4-7.1-4.9-5.7c-1.3,2-3.5,4.5,0.2,8
						c3,2.9-5.3,7.1-7.7,6.4c-6.4-1.8-6.5,1.4-7.6,2.8c-5.8,7.3-4.7-24.2-4.7-29.8s6.3-9.7,15.7-9.7
						C158.8,466.7,167.6,470.7,167.6,476.4z"/>
					
						<linearGradient id="SVGID_20_" gradientUnits="userSpaceOnUse" x1="133.601" y1="513.0834" x2="151.0602" y2="498.907" gradientTransform="matrix(1 0 0 -1 0 988)">
						<stop  offset="0" style="stop-color:#FF7C6E"/>
						<stop  offset="1" style="stop-color:#F5317F"/>
					</linearGradient>
					<path class="st33" d="M145.7,479.2c0,4.2-3,7.6-6.8,7.6c-3.8,0-6.8-3.4-6.8-7.6c0-4.2,3-7.6,6.8-7.6
						C142.7,471.6,145.7,475,145.7,479.2z"/>
					
						<linearGradient id="SVGID_21_" gradientUnits="userSpaceOnUse" x1="134.6728" y1="493.9679" x2="139.1492" y2="465.3185" gradientTransform="matrix(1 0 0 -1 0 988)">
						<stop  offset="0" style="stop-color:#2C4755"/>
						<stop  offset="1" style="stop-color:#334752"/>
					</linearGradient>
					<path class="st34" d="M142.2,492c1.1-9.1,1.2-10.5,0.9-12c0,0,0,0,0,0c-0.4-3.1-2.7-5.5-5.5-5.5c-2.8,0-4.3,2.5-5.5,5.4h0
						c0,0-6.4,15-5.1,29.8c1.3,14.8,1.1,15.6,8.5,28.5c3,6.2,3.3,6.8,3.1,9.2c-0.1,2.4,1.8,3.7,2.2-1.3c0.4-4.9,0.7-11-2.6-21
						c-1.9-6-1.5-11.4-0.4-15.9C139,504.7,140.6,500.8,142.2,492z"/>
				</g>
			</g>
		</g>
		<g>
			<g class="st0">
				<g>
					<path class="st1" d="M524.4,447c-2.6-1.5-4.7-0.3-4.7,2.7v119.9c0,3,2.1,6.6,4.7,8.1l42.6,24.5c2.6,1.5,4.7,0.3,4.7-2.7V479.6
						c0-3-2.1-6.6-4.7-8.1L524.4,447z"/>
				</g>
			</g>
			<g>
				<path class="st2" d="M558.8,477.2l-42.6-24.5c-1.3-0.7-2.5-0.8-3.3-0.3c-4.2,1.7-6,2.8-6.6,3.2c-0.9,0.5-1.4,1.5-1.4,3v119.9
					c0,3,2.1,6.6,4.7,8l42.6,24.5c0.7,0.4,1.3,0.6,1.9,0.6c0.3,0,2.1,0.2,5.1-1.7c1.6-1,2.4-1.5,2.9-1.8c0.1-0.1,0.2-0.1,0.3-0.2
					c0,0,0,0,0,0l0,0c0.7-0.5,1.2-1.5,1.2-2.9V485.3C563.4,482.3,561.3,478.7,558.8,477.2z"/>
				<g>
					<g>
						<path class="st10" d="M509.4,455.9c-2.6-1.5-4.7-0.3-4.7,2.7v119.9c0,3,2.1,6.6,4.7,8l42.6,24.5c2.6,1.5,4.7,0.3,4.7-2.7
							V488.5c0-3-2.1-6.6-4.7-8L509.4,455.9z"/>
					</g>
				</g>
				<g>
					<polygon class="st35" points="518.1,491.1 537.5,502.3 537.5,492.7 518.1,481.5 					"/>
					<polygon class="st35" points="549.5,534.8 549.5,525.1 516,505.9 516,515.5 					"/>
					<polygon class="st35" points="540.2,533.3 510.4,516.1 510.4,525.7 540.2,542.9 					"/>
					<polygon class="st35" points="516,542.5 549.5,561.8 549.5,552.2 516,532.9 					"/>
					<polygon class="st35" points="510.4,552.7 549.5,575.3 549.5,565.7 510.4,543.1 					"/>
					<polygon class="st35" points="510.4,556.6 510.4,566.2 529.7,577.4 529.7,567.7 					"/>
				</g>
			</g>
		</g>
		<g>
			<g class="st0">
				<g>
					<path class="st1" d="M427.8,272.4c-2.6-1.5-4.7-0.3-4.7,2.7V395c0,3,2.1,6.6,4.7,8.1l42.6,24.5c2.6,1.5,4.7,0.3,4.7-2.7V305
						c0-3-2.1-6.6-4.7-8.1L427.8,272.4z"/>
				</g>
			</g>
			<g>
				<path class="st2" d="M462.2,302.6l-42.6-24.5c-1.3-0.7-2.5-0.8-3.3-0.3c-4.2,1.7-6,2.8-6.6,3.2c-0.9,0.5-1.4,1.5-1.4,3v119.9
					c0,3,2.1,6.6,4.7,8.1l42.6,24.5c0.7,0.4,1.3,0.6,1.9,0.6c0.3,0,2.1,0.2,5.1-1.7c1.6-1,2.4-1.5,2.9-1.8c0.1-0.1,0.2-0.1,0.3-0.2
					c0,0,0,0,0,0s0,0,0,0c0.7-0.5,1.2-1.5,1.2-2.9V310.7C466.9,307.7,464.8,304.1,462.2,302.6z"/>
				<g>
					<g>
						<path class="st10" d="M412.9,281.3c-2.6-1.5-4.7-0.3-4.7,2.7v119.9c0,3,2.1,6.6,4.7,8.1l42.6,24.5c2.6,1.5,4.7,0.3,4.7-2.7
							V313.9c0-3-2.1-6.6-4.7-8.1L412.9,281.3z"/>
					</g>
				</g>
				<g>
					<polygon class="st35" points="421.5,316.5 441,327.7 441,318.1 421.5,306.9 					"/>
					<polygon class="st35" points="453,360.2 453,350.6 419.5,331.3 419.5,340.9 					"/>
					<polygon class="st35" points="443.7,358.7 413.8,341.5 413.8,351.2 443.7,368.3 					"/>
					<polygon class="st35" points="419.5,367.9 453,387.2 453,377.6 419.5,358.3 					"/>
					<polygon class="st35" points="413.8,378.2 453,400.7 453,391.1 413.8,368.5 					"/>
					<polygon class="st35" points="413.8,382 413.8,391.7 433.2,402.8 433.2,393.2 					"/>
				</g>
			</g>
		</g>
		<g>
			<path class="st8" d="M569,421.2c0.1,0,0.2,0,0.3,0.1c0.1,0,0.2,0,0.4,0c0.1,0,0.1,0,0.2,0c0.1,0,0.2-0.1,0.3-0.1
				c0.7-0.3,1.1-1,1.1-2.2v-64.1c0-2-1.5-4.6-3.2-5.6l-72.5-41.7c-1-0.6-2-0.5-2.6,0c-0.1,0.1-0.1,0.1-0.2,0.2
				c-0.1,0.1-0.1,0.2-0.2,0.2c0,0.1-0.1,0.1-0.1,0.2c0,0.1-0.1,0.2-0.1,0.4c0,0.1,0,0.1-0.1,0.2c0,0.2-0.1,0.4-0.1,0.7v64.1
				c0,2,1.5,4.6,3.2,5.6l39.6,22.8l0,0l20,11.5v0l6.3,3.6l0.2,0.1l6.4,3.7c0.2,0.1,0.4,0.2,0.6,0.3
				C568.8,421.2,568.9,421.2,569,421.2z"/>
			<g>
				<g>
					
						<linearGradient id="SVGID_22_" gradientUnits="userSpaceOnUse" x1="547.7918" y1="690.3535" x2="496.7602" y2="555.1647" gradientTransform="matrix(1 0 0 -1 0 988)">
						<stop  offset="0" style="stop-color:#15EDED"/>
						<stop  offset="1" style="stop-color:#029CF5"/>
					</linearGradient>
					<path class="st36" d="M559.2,354.8l-72.5-41.7c-0.7-0.4-1.3-0.5-1.9-0.4c-0.3,0-0.7,0.3-3.2,1.3c-1.9,0.8-2.8,1.5-3.2,1.8
						c-0.5,0.4-0.8,1-0.8,2v64.1c0,2,1.5,4.6,3.2,5.6l61,35.1l5.1,2.9l6.4,3.7c0.9,0.5,1.7,0.5,2.2,0.2c0.4-0.1,1-0.3,2.1-0.7
						c2.1-0.7,3.2-1.6,3.8-2.2c0.5-0.4,0.9-1.1,0.9-2v-64.1C562.4,358.4,561,355.9,559.2,354.8z"/>
				</g>
				
					<linearGradient id="SVGID_23_" gradientUnits="userSpaceOnUse" x1="524.2497" y1="648.7001" x2="504.1057" y2="554.2469" gradientTransform="matrix(1 0 0 -1 0 988)">
					<stop  offset="0" style="stop-color:#15EDED"/>
					<stop  offset="1" style="stop-color:#029CF5"/>
				</linearGradient>
				<path class="st37" d="M554.4,429.6c0.1,0,0.2,0,0.3,0.1c0.1,0,0.2,0,0.4,0c0.1,0,0.1,0,0.2,0c0.1,0,0.2-0.1,0.3-0.1
					c0.7-0.3,1.1-1,1.1-2.2v-64.1c0-2-1.5-4.6-3.2-5.6l-72.5-41.7c-1-0.6-2-0.5-2.6,0c-0.1,0.1-0.1,0.1-0.2,0.2
					c-0.1,0.1-0.1,0.2-0.2,0.2c0,0.1-0.1,0.1-0.1,0.2c0,0.1-0.1,0.2-0.1,0.4c0,0.1,0,0.1-0.1,0.2c0,0.2-0.1,0.4-0.1,0.7v64.1
					c0,2,1.5,4.6,3.2,5.6l39.6,22.8l0,0l20,11.5v0l6.3,3.6l0.2,0.1l6.4,3.7c0.2,0.1,0.4,0.2,0.6,0.3
					C554.2,429.5,554.3,429.5,554.4,429.6z"/>
				<path class="st19" d="M526.7,387.6c5.4,8.4,14.5,12.2,20.2,8.4c5.7-3.7,5.9-13.5,0.5-21.9c-5.4-8.4-14.5-12.2-20.2-8.5
					C521.4,369.4,521.2,379.2,526.7,387.6z"/>
				<path class="st35" d="M552.2,412.9l-20.1-34.5l-10.4,8.2l-21.2-42.1c0,0-12.4,7.8-22.8,14.2v23.1c0,2,1.5,4.6,3.2,5.6l39.6,22.8
					l0,0l20,11.5v0l6.3,3.6l0.2,0.1l6.4,3.7c0.2,0.1,0.4,0.2,0.6,0.3c0.1,0,0.2,0,0.3,0.1c0.1,0,0.2,0,0.3,0.1c0.1,0,0.2,0,0.4,0
					c0.1,0,0.1,0,0.2,0c0.1,0,0.2-0.1,0.3-0.1c0.7-0.3,1.1-1,1.1-2.2v-12L552.2,412.9z"/>
			</g>
		</g>
		<g>
			<path class="st8" d="M491.5,567.8c0.1,0,0.1,0,0.2,0c0.1,0,0.2,0,0.2,0c0,0,0.1,0,0.1,0c0.1,0,0.1,0,0.2-0.1
				c0.4-0.2,0.7-0.7,0.7-1.4v-40.6c0-1.3-0.9-2.9-2-3.5L445,495.8c-0.7-0.4-1.2-0.3-1.6,0c0,0-0.1,0.1-0.1,0.1c0,0-0.1,0.1-0.1,0.1
				c0,0-0.1,0.1-0.1,0.1c0,0.1-0.1,0.1-0.1,0.2c0,0,0,0.1,0,0.1c0,0.1,0,0.3,0,0.4v40.6c0,1.3,0.9,2.9,2,3.5l25.1,14.4l0,0l12.6,7.3
				v0l4,2.3l0.1,0.1l4,2.3c0.1,0.1,0.3,0.1,0.4,0.2C491.4,567.8,491.4,567.8,491.5,567.8z"/>
			<g>
				<g>
					
						<linearGradient id="SVGID_24_" gradientUnits="userSpaceOnUse" x1="460.7761" y1="519.1895" x2="460.3979" y2="431.4969" gradientTransform="matrix(1 0 0 -1 0 988)">
						<stop  offset="0" style="stop-color:#46EEAA"/>
						<stop  offset="1" style="stop-color:#2CBFC7"/>
					</linearGradient>
					<path class="st38" d="M485.3,525.7l-45.9-26.4c-0.4-0.2-0.8-0.3-1.2-0.2c-0.2,0-0.4,0.2-2,0.8c-1.2,0.5-1.8,0.9-2,1.1
						c-0.3,0.2-0.5,0.7-0.5,1.2v40.6c0,1.3,0.9,2.9,2,3.5l38.6,22.2l3.3,1.9l4,2.3c0.5,0.3,1,0.3,1.4,0.2c0.2-0.1,0.6-0.2,1.3-0.4
						c1.3-0.5,2.1-1,2.4-1.4c0.3-0.2,0.5-0.7,0.5-1.3v-40.6C487.3,528,486.4,526.4,485.3,525.7z"/>
				</g>
				
					<linearGradient id="SVGID_25_" gradientUnits="userSpaceOnUse" x1="453.3716" y1="475.3089" x2="473.0268" y2="384.9712" gradientTransform="matrix(1 0 0 -1 0 988)">
					<stop  offset="0" style="stop-color:#46EEAA"/>
					<stop  offset="1" style="stop-color:#2CBFC7"/>
				</linearGradient>
				<path class="st39" d="M482.2,573.1c0.1,0,0.1,0,0.2,0c0.1,0,0.2,0,0.2,0c0,0,0.1,0,0.1,0c0.1,0,0.1,0,0.2-0.1
					c0.4-0.2,0.7-0.7,0.7-1.4v-40.6c0-1.3-0.9-2.9-2-3.5l-45.9-26.4c-0.7-0.4-1.2-0.3-1.6,0c0,0-0.1,0.1-0.1,0.1
					c0,0-0.1,0.1-0.1,0.1c0,0-0.1,0.1-0.1,0.1c0,0.1,0,0.1-0.1,0.2c0,0,0,0.1,0,0.1c0,0.1,0,0.3,0,0.4v40.6c0,1.3,0.9,2.9,2,3.5
					l25.1,14.4l0,0l12.6,7.3v0l4,2.3l0.1,0.1l4,2.3c0.1,0.1,0.3,0.1,0.4,0.2C482.1,573,482.2,573.1,482.2,573.1z"/>
			</g>
		</g>
		<g>
			<path class="st8" d="M468.7,493.9c0.1,0,0.1,0,0.2,0c0.1,0,0.2,0,0.2,0c0,0,0.1,0,0.1,0c0.1,0,0.1,0,0.2-0.1
				c0.4-0.2,0.7-0.7,0.7-1.4v-40.6c0-1.3-0.9-2.9-2-3.5L422.1,422c-0.7-0.4-1.2-0.3-1.6,0c0,0-0.1,0.1-0.1,0.1c0,0-0.1,0.1-0.1,0.1
				c0,0-0.1,0.1-0.1,0.1c0,0.1,0,0.1-0.1,0.2c0,0,0,0.1,0,0.1c0,0.1,0,0.3,0,0.4v40.6c0,1.3,0.9,2.9,2,3.5l25.1,14.4l0,0l12.6,7.3v0
				l4,2.3l0.1,0.1l4,2.3c0.1,0.1,0.3,0.1,0.4,0.2C468.5,493.9,468.6,493.9,468.7,493.9z"/>
			<g>
				<g>
					
						<linearGradient id="SVGID_26_" gradientUnits="userSpaceOnUse" x1="437.9481" y1="593.0532" x2="437.5699" y2="505.3596" gradientTransform="matrix(1 0 0 -1 0 988)">
						<stop  offset="0" style="stop-color:#FF7C6E"/>
						<stop  offset="1" style="stop-color:#F5317F"/>
					</linearGradient>
					<path class="st40" d="M462.5,451.9l-45.9-26.4c-0.4-0.2-0.8-0.3-1.2-0.2c-0.2,0-0.4,0.2-2,0.8c-1.2,0.5-1.8,0.9-2,1.1
						c-0.3,0.2-0.5,0.7-0.5,1.2V469c0,1.3,0.9,2.9,2,3.5l38.6,22.2l3.3,1.9l4,2.3c0.5,0.3,1,0.3,1.4,0.1c0.2-0.1,0.6-0.2,1.3-0.4
						c1.3-0.5,2.1-1,2.4-1.4c0.3-0.2,0.5-0.7,0.5-1.3v-40.6C464.5,454.1,463.6,452.5,462.5,451.9z"/>
				</g>
				
					<linearGradient id="SVGID_27_" gradientUnits="userSpaceOnUse" x1="430.5421" y1="549.1694" x2="450.1975" y2="458.8307" gradientTransform="matrix(1 0 0 -1 0 988)">
					<stop  offset="0" style="stop-color:#FF7C6E"/>
					<stop  offset="1" style="stop-color:#F5317F"/>
				</linearGradient>
				<path class="st41" d="M459.4,499.2c0.1,0,0.1,0,0.2,0c0.1,0,0.2,0,0.2,0c0,0,0.1,0,0.1,0c0.1,0,0.1,0,0.2-0.1
					c0.4-0.2,0.7-0.6,0.7-1.4v-40.6c0-1.3-0.9-2.9-2-3.5l-45.9-26.4c-0.7-0.4-1.2-0.3-1.6,0c0,0-0.1,0.1-0.1,0.1
					c0,0-0.1,0.1-0.1,0.1c0,0-0.1,0.1-0.1,0.1c0,0.1-0.1,0.1-0.1,0.2c0,0,0,0.1,0,0.1c0,0.1,0,0.3,0,0.4V469c0,1.3,0.9,2.9,2,3.5
					L438,487l0,0l12.6,7.3v0l4,2.3l0.1,0.1l4,2.3c0.1,0.1,0.3,0.1,0.4,0.2C459.3,499.2,459.3,499.2,459.4,499.2z"/>
			</g>
		</g>
		<g>
			<g>
				
					<linearGradient id="SVGID_28_" gradientUnits="userSpaceOnUse" x1="450.0213" y1="799.8893" x2="401.2624" y2="708.416" gradientTransform="matrix(1 0 0 -1 0 988)">
					<stop  offset="0" style="stop-color:#46EEAA"/>
					<stop  offset="1" style="stop-color:#2CBFC7"/>
				</linearGradient>
				<path class="st42" d="M442.5,259.3L370,217.6c-0.7-0.4-1.3-0.5-1.9-0.4c-0.3,0-0.7,0.3-3.2,1.3c-2,0.8-2.8,1.5-3.2,1.8
					c-0.5,0.4-0.8,1-0.8,2v64.1c0,2,1.5,4.6,3.2,5.6l48.6,28l11,31l6.5-3.3V330l6.4,3.7c0.9,0.5,1.7,0.5,2.2,0.2
					c0.4-0.1,1-0.3,2.1-0.7c2.1-0.7,3.2-1.6,3.8-2.2c0.5-0.4,0.9-1.1,0.9-2v-64.1C445.7,262.9,444.3,260.4,442.5,259.3z"/>
				
					<linearGradient id="SVGID_29_" gradientUnits="userSpaceOnUse" x1="403.1384" y1="740.0879" x2="390.5283" y2="602.6212" gradientTransform="matrix(1 0 0 -1 0 988)">
					<stop  offset="0" style="stop-color:#46EEAA"/>
					<stop  offset="1" style="stop-color:#2CBFC7"/>
				</linearGradient>
				<path class="st43" d="M436.7,262.2l-72.5-41.7c-1.8-1-3.2-0.2-3.2,1.9v64.1c0,2,1.5,4.6,3.2,5.6l39.6,22.8l20,36.3v-24.8
					l12.9,7.4c1.8,1,3.2,0.2,3.2-1.9v-64.1C439.9,265.7,438.5,263.2,436.7,262.2z"/>
			</g>
			<g>
				<path class="st44" d="M389.1,280.9l-7.6-9.6c-0.3-0.3-0.4-0.6-0.5-0.8c-0.1-0.2-0.2-0.5-0.2-0.7v-0.5c0-0.2,0.1-0.4,0.2-0.6
					c0.1-0.1,0.3-0.2,0.5-0.3l7.6-1.6c0,0,0.1,0,0.2,0c0.1,0,0.2,0,0.3,0.1c0.1,0.1,0.3,0.2,0.4,0.3c0.1,0.1,0.1,0.3,0.1,0.5v1.1
					c0,0.2,0,0.3-0.1,0.4c-0.1,0.1-0.2,0.1-0.4,0.2l-6.6,1.4l6.6,8.3c0.2,0.3,0.4,0.5,0.4,0.6c0.1,0.2,0.1,0.3,0.1,0.5v1.1
					c0,0.2,0,0.3-0.1,0.3c-0.1,0-0.2,0-0.4,0C389.6,281.4,389.4,281.2,389.1,280.9z"/>
				<path class="st44" d="M392.7,286.9c-0.1-0.2-0.1-0.3-0.1-0.4c0-0.1,0-0.2,0.1-0.3l8.4-16.9c0.1-0.2,0.4-0.2,0.6-0.1l0.9,0.5
					c0.1,0.1,0.2,0.2,0.3,0.3c0.1,0.2,0.1,0.3,0.1,0.4c0,0.1,0,0.2-0.1,0.3l-8.4,16.8c0,0.1-0.1,0.2-0.2,0.2c-0.1,0-0.2,0-0.4-0.1
					l-0.9-0.4C392.9,287.2,392.8,287,392.7,286.9z"/>
				<path class="st44" d="M405.4,289.4c-0.1-0.2-0.1-0.3-0.1-0.5v-1.1c0-0.2,0-0.3,0.1-0.4c0.1-0.1,0.2-0.1,0.4-0.2l6.6-1.3
					l-6.6-8.2c-0.2-0.2-0.3-0.4-0.4-0.6c-0.1-0.2-0.1-0.3-0.1-0.5v-1c0-0.2,0-0.3,0.1-0.3c0.1,0,0.2,0,0.4,0
					c0.1,0.1,0.2,0.2,0.4,0.3s0.2,0.2,0.3,0.3l7.6,9.5c0.3,0.3,0.4,0.6,0.5,0.8c0.1,0.2,0.2,0.5,0.2,0.7v0.4c0,0.2-0.1,0.4-0.2,0.5
					c-0.1,0.1-0.3,0.2-0.5,0.2l-7.6,1.5c-0.3,0.1-0.5,0-0.6,0C405.6,289.6,405.5,289.5,405.4,289.4z"/>
			</g>
		</g>
		<g>
			<g class="st0">
				<g>
					<path class="st1" d="M355.7,619.7c-2.5-1.4-6.6-1.4-9,0.1l-19.1,11.7c-2.5,1.5-2.4,3.9,0.1,5.4l62.3,35.8
						c2.5,1.4,6.6,1.4,9-0.1l19.1-11.7c2.5-1.5,2.4-3.9-0.1-5.4L355.7,619.7z"/>
				</g>
			</g>
			<g>
				
					<linearGradient id="SVGID_30_" gradientUnits="userSpaceOnUse" x1="336.5381" y1="504.5948" x2="378.513" y2="513.6523" gradientTransform="matrix(1 0 0 -1 0 988)">
					<stop  offset="0" style="stop-color:#F8A980"/>
					<stop  offset="1" style="stop-color:#FFDF75"/>
				</linearGradient>
				<path class="st45" d="M340.2,478.7l23.8-1c0,0,0.7-3.5,3.5-3.2c2.8,0.3,10.9-0.1,10.9-0.1s4.9-0.8-2.4,2.4
					c-7.3,3.2-8.6,4.2-10.8,3.5c-1.7,0.1-21.7,6.5-23.5,5.6c-1.7-0.9-1.4-3.1-1.4-3.1L340.2,478.7z"/>
				
					<linearGradient id="SVGID_31_" gradientUnits="userSpaceOnUse" x1="338.0916" y1="524.3963" x2="359.335" y2="524.3963" gradientTransform="matrix(1 0 0 -1 0 988)">
					<stop  offset="0" style="stop-color:#AFF57A"/>
					<stop  offset="1" style="stop-color:#54D169"/>
				</linearGradient>
				<path class="st46" d="M359.2,441.3h-3.9c0,0-7,2.1-10.9,14.3c-4,12.1-6,17.9-6.1,20.5c-0.1,2.6-1.1,7.8,1.8,9.3
					c2.9,1.4,5.1-0.2,6.5-1.9c1.4-1.7,0.8-3.4,2.1-6.9c1.3-3.4,2.1-8.5,4.6-10.3c2.5-1.8,6-6.4,6-6.4L359.2,441.3z"/>
				
					<linearGradient id="SVGID_32_" gradientUnits="userSpaceOnUse" x1="345.7806" y1="353.0958" x2="365.003" y2="353.0958" gradientTransform="matrix(1 0 0 -1 0 988)">
					<stop  offset="0" style="stop-color:#334752"/>
					<stop  offset="1" style="stop-color:#6A6D89"/>
				</linearGradient>
				<path class="st47" d="M347.2,631l-1,0.8c0,0-0.3,2.5-0.2,3.9c0.1,1.5-0.6,3,0.2,3.3c0.8,0.3,2.8,0.9,4.2,0.3
					c1.4-0.6,1.2-2.1,2.1-2.1c0.9,0.1,5.9-1.2,9.3-2.9c3.4-1.7,4.5-4.2,1.7-4c-2.8,0.2-8.8,1.2-11.2,1.6c-0.5,0.1-0.6-0.3-0.6-0.3
					l-1-0.2l-1.3-0.2L347.2,631z"/>
				<ellipse class="st48" cx="348.9" cy="631.8" rx="2.8" ry="1.4"/>
				
					<linearGradient id="SVGID_33_" gradientUnits="userSpaceOnUse" x1="271.5602" y1="381.1591" x2="412.729" y2="437.494" gradientTransform="matrix(1 0 0 -1 0 988)">
					<stop  offset="0" style="stop-color:#15EDED"/>
					<stop  offset="1" style="stop-color:#029CF5"/>
				</linearGradient>
				<path class="st49" d="M356.2,516.5c-6,1.2-4.3,4.5-4.3,7.5c0,3.1-1.8,19.5-4,40.8c-2,19.7-1,28.2-1.2,43.3
					c-0.2,12-1,18.2-1.4,20.2c-0.1,0.3-0.1,0.5-0.1,0.8c0,1.7,1.8,3.1,3.9,3.1c2.2,0,3.9-1.4,3.9-3.1c0,0,2.3-30.1,2.7-33.3
					c2-15.9,7.4-35,9.4-42.1c2-7.1,10.7-31.9,10.7-31.9S369.5,514,356.2,516.5z"/>
				
					<linearGradient id="SVGID_34_" gradientUnits="userSpaceOnUse" x1="379.5418" y1="536.4306" x2="371.3682" y2="553.0005" gradientTransform="matrix(1 0 0 -1 0 988)">
					<stop  offset="0" style="stop-color:#F8A980"/>
					<stop  offset="1" style="stop-color:#FFDF75"/>
				</linearGradient>
				<path class="st50" d="M366.6,449.5c0.5-0.9,3.6-7.8,4.2-12.3c0.5-4.6,0.3-7.1,0.6-7.2c0.3-0.1,3.1-0.8,3.1-0.8l5.4,2.9l2.5,1.1
					c0,0,1.5,3.9-0.5,5.8c-4.8,4.3-3.8,14.7-0.6,14.5c0.3,0,0,3.4-3.2,2.3c-3.2-1.1-7.3-3.1-7.8-3.6
					C369.7,451.6,366.6,449.5,366.6,449.5z"/>
				
					<linearGradient id="SVGID_35_" gradientUnits="userSpaceOnUse" x1="370.4973" y1="552.616" x2="394.357" y2="567.8597" gradientTransform="matrix(1 0 0 -1 0 988)">
					<stop  offset="0" style="stop-color:#F8A980"/>
					<stop  offset="1" style="stop-color:#FFDF75"/>
				</linearGradient>
				<path class="st51" d="M384.3,431.7c0.6-0.2,1.1-0.7,1.1-1.3c0-0.8-2.4-5.1-3.6-6c-0.1-0.8-0.2-1.8-0.3-2.7
					c-0.2-1.8-0.7-2.9-2.1-2.9c-1.5,0-4.7,0.7-4.7,0.7s-3.8,2.1-3.8,2.2c0,0.1-4.7,10.6-4.7,10.9s6.2,8.1,16.1,8.2
					c1.2,0,2.3-1,2.3-2.3c0-0.3-0.1-0.5-0.1-0.8c-0.1-0.5-0.2-1.3-0.2-1.9c0-1.1,0.6-1.6,0.3-2.1c-0.3-0.5-0.7-0.9-0.5-1.4
					C384.1,432.2,384.2,432,384.3,431.7z"/>
				
					<linearGradient id="SVGID_36_" gradientUnits="userSpaceOnUse" x1="392.6622" y1="332.0392" x2="391.2534" y2="339.4978" gradientTransform="matrix(1 0 0 -1 0 988)">
					<stop  offset="0" style="stop-color:#334752"/>
					<stop  offset="1" style="stop-color:#6A6D89"/>
				</linearGradient>
				<path class="st52" d="M381.8,647.5l-1.3,1.1c0,0-0.4,3.4-0.2,5.5c0.1,2-0.7,4.2,0.2,4.5c0.9,0.4,3.4,1.2,5.2,0.4
					c1.8-0.8,1.5-3,2.6-2.8c1.1,0.1,7.4-1.7,11.6-4c4.3-2.4,5.6-5.8,2.1-5.6c-3.4,0.2-11,1.7-14,2.3c-0.6,0.2-0.8-0.4-0.8-0.4
					l-1.3-0.2l-1.6-0.2L381.8,647.5z"/>
				<ellipse class="st48" cx="383.9" cy="648.5" rx="3.4" ry="1.9"/>
				
					<linearGradient id="SVGID_37_" gradientUnits="userSpaceOnUse" x1="452.0342" y1="316.6523" x2="335.384" y2="470.0874" gradientTransform="matrix(1 0 0 -1 0 988)">
					<stop  offset="0" style="stop-color:#15EDED"/>
					<stop  offset="1" style="stop-color:#029CF5"/>
				</linearGradient>
				<path class="st53" d="M390.5,520.3l-13.8,2.2c-0.9-5.8-4.8-10.1-9.4-10.1c-5.3,0-9.6,5.6-9.6,12.6c0,2.4,0.5,4.7,1.5,6.6
					c2.5,6.8,12.9,14.9,14,25.4c1.2,11.2,4.6,15.9,5.1,22.4c0.5,6.5,1,36.6,1.5,46.2c0.6,9.6,0.9,21,0.9,21c0,1.5,1.4,2.8,3.2,2.8
					c1.8,0,3.2-1.2,3.2-2.8c0,0,3.5-48.8,3.7-59.7c0.2-10.9,0.1-11.6,0.2-25.3C391.1,545.8,390.5,520.3,390.5,520.3z"/>
				
					<linearGradient id="SVGID_38_" gradientUnits="userSpaceOnUse" x1="358.4013" y1="557.7869" x2="381.5988" y2="464.9966" gradientTransform="matrix(1 0 0 -1 0 988)">
					<stop  offset="0" style="stop-color:#AFF57A"/>
					<stop  offset="1" style="stop-color:#54D169"/>
				</linearGradient>
				<path class="st54" d="M390.6,486.5c2.4-9.9,3.9-13.8,3.9-13.8l-1.4-18.3c0,0-5.7-3.4-11.9-4.5c-4.7-0.9-7.2-1.3-11.7-3.6
					c-1.1-0.6-3.3-3.6-8.7-5.1c0,0-5.2-1.6-7.3,2c-2.8,4.7-1.3,10.1,0.1,22c1.4,11.9,1.5,25.7,0,35.9c-0.9,5.9-2.4,12.9-1.6,17.1
					c0,0.1,0,0.1,0,0.1c0,0.4,0.2,0.8,0.3,1.2c0.4,1,0.9,1.7,1.7,2.1c3.2,2.6,9.9,4.4,17.8,4.4c7.5,0,13.8-1.4,17.1-3.7
					c1.5-0.5,3.1-2.3,3.1-7.3C391.8,506.1,388.2,496.4,390.6,486.5z"/>
				<path class="st1" d="M380.4,419.6c0.7-3.6-0.1-11-0.1-11c0-0.6-0.5-1-1.1-1c-9.1-0.3-18.2,11.1-20,13.5c-1,1.1-1.6,2.5-1.6,4.1
					c0,0.5,0.1,0.9,0.2,1.4c0,0,0,0.1,0,0.1c0.6,4.4,7.6,11.7,7.6,11.7l0.1,0c0.8,0.7,1.8,1.2,3,1.2c2,0,3.7-1.4,4-3.2
					c0,0,0,0,0-0.1c0.2-1.1,0.8-3.5,0.5-8c-0.1-1.5,4.5-2.9,4.6-2.9l0.1,0c0.9-0.3,1.5-1,1.8-1.8c0,0,0,0,0,0c0,0,0,0,0,0
					c0-0.2,0.1-0.3,0.1-0.5C379.8,422.1,379.8,422,380.4,419.6z"/>
				
					<linearGradient id="SVGID_39_" gradientUnits="userSpaceOnUse" x1="403.4719" y1="496.1542" x2="461.7963" y2="504.3286" gradientTransform="matrix(1 0 0 -1 0 988)">
					<stop  offset="0" style="stop-color:#F8A980"/>
					<stop  offset="1" style="stop-color:#FFDF75"/>
				</linearGradient>
				<path class="st55" d="M407.6,486.8l30.2-1.3c0,0,0.9-4.4,4.4-4.1c3.5,0.3,13.8-0.1,13.8-0.1s6.2-1-3.1,3.1s-10.8,5.3-13.7,4.4
					c-2.1,0.1-27.5,8.2-29.7,7.1c-2.2-1.1-1.8-4-1.8-4L407.6,486.8z"/>
				
					<linearGradient id="SVGID_40_" gradientUnits="userSpaceOnUse" x1="411.9874" y1="489.0888" x2="384.4594" y2="535.1356" gradientTransform="matrix(1 0 0 -1 0 988)">
					<stop  offset="0" style="stop-color:#AFF57A"/>
					<stop  offset="1" style="stop-color:#54D169"/>
				</linearGradient>
				<path class="st56" d="M411.3,485.2c-0.3-1.5-2.9-3.7-8.4-16.4c-3.2-7.5-5.8-11-7.4-12.7c-1.5-1.7-3.7-2.8-6.3-2.8
					c-4.5,0-8.1,3.4-8.1,7.6c0,0.5,0.1,1,0.2,1.5c-0.1,5.6,16.5,21.7,19,24.7c2.5,3,3.3,6,6.5,8.6c3.5,2.7,4.5,1.2,3.8-2
					C410,490.7,412.1,489,411.3,485.2z"/>
			</g>
		</g>
		<g>
			<g class="st0">
				<g>
					<path class="st1" d="M544.4,791.2c2.8-1.6,7.4-1.6,10.2,0.1l21.5,13.2c2.8,1.7,2.7,4.4-0.1,6L505.7,851
						c-2.8,1.6-7.4,1.6-10.2-0.1l-21.5-13.2c-2.8-1.7-2.7-4.4,0.1-6L544.4,791.2z"/>
				</g>
			</g>
			
				<linearGradient id="SVGID_41_" gradientUnits="userSpaceOnUse" x1="796.837" y1="337.3571" x2="844.1787" y2="347.5727" gradientTransform="matrix(-0.9118 -0.4106 0.4106 -0.9118 1135.5935 1278.8832)">
				<stop  offset="0" style="stop-color:#F8A980"/>
				<stop  offset="1" style="stop-color:#FFDF75"/>
			</linearGradient>
			<path class="st57" d="M546,637.5l-24-12.1c0,0,0.9-3.9-2.1-4.9c-3-1-11.2-5.1-11.2-5.1s-4.7-3.1,1.4,3.6c6,6.7,6.9,8.3,9.5,8.6
				c1.7,0.9,19.3,16.7,21.5,16.6c2.2-0.1,2.9-2.6,2.9-2.6L546,637.5z"/>
			
				<linearGradient id="SVGID_42_" gradientUnits="userSpaceOnUse" x1="798.59" y1="359.6882" x2="822.5452" y2="359.6882" gradientTransform="matrix(-0.9118 -0.4106 0.4106 -0.9118 1135.5935 1278.8832)">
				<stop  offset="0" style="stop-color:#EDF2F6"/>
				<stop  offset="1" style="stop-color:#C3D0D8"/>
			</linearGradient>
			<path class="st58" d="M543.7,590.3l4,1.8c0,0,6.2,5.4,4.6,19.7c-1.5,14.3-2.2,21.2-3.3,23.9c-1.1,2.8-2.5,8.6-6.1,8.7
				c-3.6,0.1-5.1-2.6-5.8-5c-0.7-2.4,0.8-3.9,1-8c0.2-4.1,1.8-9.7,0-12.7c-1.8-3-3.2-9.3-3.2-9.3L543.7,590.3z"/>
			
				<linearGradient id="SVGID_43_" gradientUnits="userSpaceOnUse" x1="2733.5322" y1="179.7355" x2="2755.21" y2="179.7355" gradientTransform="matrix(-1 0 0 -1 3289.1426 988)">
				<stop  offset="0" style="stop-color:#334752"/>
				<stop  offset="1" style="stop-color:#6A6D89"/>
			</linearGradient>
			<path class="st59" d="M554,803.9l1.2,0.9c0,0,0.3,2.8,0.2,4.4c-0.1,1.6,0.6,3.4-0.2,3.7c-0.9,0.3-3.1,1-4.7,0.3
				c-1.6-0.7-1.4-2.4-2.4-2.3c-1,0.1-6.6-1.4-10.5-3.3c-3.9-1.9-5-4.7-1.9-4.5c3.1,0.2,10,1.4,12.6,1.8c0.6,0.1,0.7-0.3,0.7-0.3
				l1.1-0.2l1.4-0.2L554,803.9z"/>
			<path class="st48" d="M549,804.8c0,0.9,1.4,1.5,3.1,1.5c1.7,0,3.1-0.7,3.1-1.5s-1.4-1.5-3.1-1.5C550.4,803.2,549,803.9,549,804.8
				z"/>
			
				<linearGradient id="SVGID_44_" gradientUnits="userSpaceOnUse" x1="2649.8271" y1="211.3816" x2="2809.0361" y2="274.9157" gradientTransform="matrix(-1 0 0 -1 3289.1426 988)">
				<stop  offset="0" style="stop-color:#FFE600"/>
				<stop  offset="1" style="stop-color:#FFC400"/>
			</linearGradient>
			<path class="st60" d="M543.8,674.8c6.8,1.3,4.9,5,4.9,8.5c0,3.5,2,21.9,4.5,46c2.3,22.2,1.1,31.9,1.4,48.9
				c0.2,13.5,1.2,20.5,1.6,22.8c0.1,0.3,0.2,0.6,0.2,0.9c0,1.9-2,3.5-4.4,3.5c-2.4,0-4.4-1.6-4.4-3.5c0,0-2.6-33.9-3-37.5
				c-2.3-18-8.3-39.5-10.6-47.5c-2.3-8-12-35.9-12-35.9S528.8,671.9,543.8,674.8z"/>
			
				<linearGradient id="SVGID_45_" gradientUnits="userSpaceOnUse" x1="2771.6077" y1="386.4952" x2="2762.3899" y2="405.182" gradientTransform="matrix(-1 0 0 -1 3289.1426 988)">
				<stop  offset="0" style="stop-color:#F8A980"/>
				<stop  offset="1" style="stop-color:#FFDF75"/>
			</linearGradient>
			<path class="st61" d="M532.1,599.1c-0.5-1-4.1-8.8-4.7-13.9c-0.6-5.1-0.3-8-0.7-8.1c-0.3-0.1-3.5-0.9-3.5-0.9l-6.1,3.2l-2.8,1.2
				c0,0-1.7,4.4,0.6,6.5c5.4,4.8,4.3,16.6,0.6,16.3c-0.3,0,0,3.9,3.6,2.6c3.6-1.3,8.2-3.5,8.8-4
				C528.7,601.6,532.1,599.1,532.1,599.1z"/>
			
				<linearGradient id="SVGID_46_" gradientUnits="userSpaceOnUse" x1="2761.4072" y1="404.7482" x2="2788.3164" y2="421.9403" gradientTransform="matrix(-1 0 0 -1 3289.1426 988)">
				<stop  offset="0" style="stop-color:#F8A980"/>
				<stop  offset="1" style="stop-color:#FFDF75"/>
			</linearGradient>
			<path class="st62" d="M512.2,579.1c-0.7-0.3-1.2-0.8-1.2-1.4c0-0.8,2.7-5.7,4-6.8c0.1-0.9,0.2-2.1,0.4-3c0.3-2,0.8-3.3,2.4-3.3
				s5.3,0.8,5.3,0.8s4.3,2.4,4.3,2.5c0,0.1,5.3,12,5.3,12.4c0,0.4-7,9.2-18.2,9.2c-1.4,0-2.5-1.1-2.5-2.5c0-0.3,0.1-0.6,0.2-0.9
				c0.1-0.6,0.2-1.5,0.2-2.1c0-1.2-0.7-1.8-0.4-2.4c0.3-0.6,0.8-1,0.5-1.6C512.4,579.7,512.3,579.4,512.2,579.1z"/>
			
				<linearGradient id="SVGID_47_" gradientUnits="userSpaceOnUse" x1="2786.4033" y1="155.989" x2="2784.8149" y2="164.3983" gradientTransform="matrix(-1 0 0 -1 3289.1426 988)">
				<stop  offset="0" style="stop-color:#334752"/>
				<stop  offset="1" style="stop-color:#6A6D89"/>
			</linearGradient>
			<path class="st63" d="M515,822.4l1.5,1.2c0,0,0.4,3.9,0.3,6.2c-0.1,2.3,0.8,4.7-0.3,5.1c-1.1,0.4-3.9,1.3-5.9,0.4
				s-1.7-3.3-2.9-3.2c-1.2,0.1-8.3-1.9-13.1-4.5c-4.8-2.7-6.3-6.6-2.4-6.3c3.9,0.3,12.4,1.9,15.8,2.5c0.7,0.2,0.8-0.4,0.8-0.4
				l1.4-0.2l1.8-0.3L515,822.4z"/>
			<path class="st48" d="M508.7,823.6c0,1.2,1.7,2.1,3.9,2.1c2.1,0,3.9-1,3.9-2.1c0-1.2-1.7-2.1-3.9-2.1S508.7,822.5,508.7,823.6z"
				/>
			
				<linearGradient id="SVGID_48_" gradientUnits="userSpaceOnUse" x1="504.6405" y1="240.599" x2="542.273" y2="240.599" gradientTransform="matrix(1 0 0 -1 0 988)">
				<stop  offset="0" style="stop-color:#FFE600"/>
				<stop  offset="1" style="stop-color:#FFC400"/>
			</linearGradient>
			<path class="st64" d="M505.2,679l15.6,2.5c1-6.5,5.4-11.4,10.6-11.4c6,0,10.8,6.4,10.8,14.2c0,2.8-0.6,5.3-1.6,7.5
				c-2.9,7.6-14.5,16.8-15.8,28.6c-1.3,12.6-5.2,17.9-5.8,25.3c-0.5,7.4-1.1,41.2-1.7,52.1c-0.7,10.8-1,23.7-1,23.7
				c0,1.7-1.6,3.1-3.6,3.1c-2,0-3.6-1.4-3.6-3.1c0,0-3.9-55-4.2-67.4c-0.3-12.3-0.1-13.1-0.3-28.5C504.5,707.8,505.2,679,505.2,679z
				"/>
			
				<linearGradient id="SVGID_49_" gradientUnits="userSpaceOnUse" x1="502.5328" y1="380.3542" x2="582.6356" y2="284.7689" gradientTransform="matrix(1 0 0 -1 0 988)">
				<stop  offset="0" style="stop-color:#EDF2F6"/>
				<stop  offset="1" style="stop-color:#C3D0D8"/>
			</linearGradient>
			<path class="st65" d="M505.1,640.9c-2.7-11.2-4.4-15.6-4.4-15.6l1.6-20.7c0,0,6.4-3.8,13.5-5.1c5.4-1,8.1-1.5,13.2-4.1
				c1.3-0.7,3.7-4.1,9.8-5.8c0,0,5.9-1.8,8.3,2.3c3.1,5.3,1.5,11.3-0.1,24.8c-1.6,13.5-1.7,29,0,40.5c1,6.7,2.7,14.6,1.9,19.3
				c0,0.1,0,0.1,0,0.2c0,0.4-0.2,0.9-0.4,1.3c-0.4,1.1-1,1.9-2,2.4c-3.6,2.9-11.1,5-20.1,5c-8.5,0-15.5-1.6-19.3-4.2
				c-1.7-0.6-3.5-2.6-3.5-8.3C503.7,663,507.8,652.1,505.1,640.9z"/>
			<path class="st66" d="M516.5,565.5c-0.8-4.1,0.1-12.4,0.1-12.4c0-0.7,0.6-1.2,1.3-1.2c10.2-0.4,20.5,12.6,22.5,15.2
				c1.1,1.3,1.8,2.8,1.8,4.6c0,0.5-0.1,1-0.2,1.5c0,0.1,0,0.1,0,0.1c-0.7,5-8.6,13.2-8.6,13.2l-0.1,0c-0.8,0.8-2,1.4-3.4,1.4
				c-2.3,0-4.2-1.6-4.6-3.6c0,0,0,0,0-0.1c-0.3-1.2-0.9-4-0.6-9c0.1-1.6-5.1-3.2-5.2-3.2l-0.1,0c-1-0.3-1.7-1.1-2-2c0,0,0,0,0,0
				c0,0,0,0,0-0.1c0-0.2-0.1-0.3-0.1-0.5C517.2,568.3,517.2,568.1,516.5,565.5z"/>
			
				<linearGradient id="SVGID_50_" gradientUnits="userSpaceOnUse" x1="6417.5771" y1="5164.583" x2="6497.561" y2="5175.793" gradientTransform="matrix(-0.1406 0.9901 -0.9901 -0.1406 6523.1689 -4985.9155)">
				<stop  offset="0" style="stop-color:#F8A980"/>
				<stop  offset="1" style="stop-color:#FFDF75"/>
			</linearGradient>
			<path class="st67" d="M499.8,646.7l-8.3,45.6c0,0-5.1,0.3-5.3,4.3c-0.2,4-2.3,15.4-2.3,15.4s-2.1,6.8,3.9-3
				c6-9.7,7.6-11.2,7.1-14.6c0.5-2.3,12.8-28.5,12.3-31.3c-0.4-2.3,4.1-11.4,1.8-15c-0.3-0.5-4.5,3.3-4.5,3.3L499.8,646.7z"/>
			
				<linearGradient id="SVGID_51_" gradientUnits="userSpaceOnUse" x1="491.5489" y1="382.8614" x2="530.5912" y2="319.5865" gradientTransform="matrix(1 0 0 -1 0 988)">
				<stop  offset="0" style="stop-color:#EDF2F6"/>
				<stop  offset="1" style="stop-color:#C3D0D8"/>
			</linearGradient>
			<path class="st68" d="M499.1,649.3c-1.2-1.3,0.5-5.3-2-20.6c-1.5-9.1-1.2-14-0.7-16.5c0.4-2.5,1.8-5,4.2-6.5
				c4.2-2.7,9.7-1.6,12.3,2.4c0.3,0.5,0.6,1,0.8,1.6c3.5,5.2-2.6,30.6-3.1,35c-0.6,4.3,0.2,8.1-3.4,7.9
				C504.6,652.4,501,651.3,499.1,649.3z"/>
		</g>
		<g>
			<g class="st0">
				<g>
					<path class="st1" d="M385,738.3c-1.9-1.2-5.1-1.3-7.1-0.2l-54.5,30.5c-2,1.1-2,3-0.1,4.2l68,43c1.9,1.2,5.1,1.3,7.1,0.2
						l54.5-30.5c2-1.1,2-3,0.1-4.2L385,738.3z"/>
				</g>
			</g>
			<g>
				
					<linearGradient id="SVGID_52_" gradientUnits="userSpaceOnUse" x1="394.3539" y1="260.4404" x2="387.5378" y2="188.2515" gradientTransform="matrix(1 0 0 -1 0 988)">
					<stop  offset="0" style="stop-color:#FFDF40"/>
					<stop  offset="1" style="stop-color:#FF8359"/>
				</linearGradient>
				<path class="st69" d="M449.6,779.7l0.2-5.6c0.2-0.8-0.2-1.6-1.2-2.3l-61-38.5c-1.7-1.1-4.6-1.2-6.4-0.2l-48.9,27.4
					c-0.9,0.5-1.4,1.3-1.4,2l-0.2,5.8c0,0.1,0,0.2,0,0.3l0,0.1h0c0.1,0.6,0.5,1.2,1.3,1.7l61,38.5c1.7,1.1,4.6,1.2,6.4,0.2
					l48.9-27.4C449.1,781.2,449.6,780.5,449.6,779.7C449.6,779.7,449.6,779.7,449.6,779.7z"/>
				<g>
					<g>
						
							<linearGradient id="SVGID_53_" gradientUnits="userSpaceOnUse" x1="391.3644" y1="225.922" x2="382.0696" y2="170.1527" gradientTransform="matrix(1 0 0 -1 0 988)">
							<stop  offset="0" style="stop-color:#FFDF40"/>
							<stop  offset="1" style="stop-color:#FF8359"/>
						</linearGradient>
						<path class="st70" d="M387.5,733.3c-1.7-1.1-4.6-1.2-6.4-0.2l-48.9,27.4c-1.8,1-1.8,2.7-0.1,3.8l61,38.5
							c1.7,1.1,4.6,1.2,6.4,0.2l48.9-27.4c1.8-1,1.8-2.7,0.1-3.8L387.5,733.3z"/>
					</g>
				</g>
			</g>
			<g>
				
					<linearGradient id="SVGID_54_" gradientUnits="userSpaceOnUse" x1="403.0641" y1="259.1017" x2="400.2757" y2="184.433" gradientTransform="matrix(1 0 0 -1 0 988)">
					<stop  offset="0" style="stop-color:#AFF57A"/>
					<stop  offset="1" style="stop-color:#54D169"/>
				</linearGradient>
				<path class="st71" d="M461.4,770.4l-0.1-5.6c0.1-0.8-0.3-1.6-1.4-2.2l-63.2-34.8c-1.8-1-4.7-0.9-6.4,0.2l-47.2,30.2
					c-0.9,0.6-1.3,1.3-1.2,2.1l0.1,5.8c0,0.1,0,0.2,0,0.3l0,0.1h0c0.1,0.6,0.5,1.2,1.4,1.7l63.2,34.8c1.8,1,4.7,0.9,6.4-0.2
					l47.2-30.2C461.1,771.9,461.5,771.1,461.4,770.4C461.4,770.4,461.4,770.4,461.4,770.4z"/>
				<g>
					<g>
						
							<linearGradient id="SVGID_55_" gradientUnits="userSpaceOnUse" x1="420.046" y1="260.0805" x2="370.0626" y2="166.7221" gradientTransform="matrix(1 0 0 -1 0 988)">
							<stop  offset="0" style="stop-color:#AFF57A"/>
							<stop  offset="1" style="stop-color:#54D169"/>
						</linearGradient>
						<path class="st72" d="M396.8,727.7c-1.8-1-4.7-0.9-6.4,0.2l-47.2,30.2c-1.7,1.1-1.7,2.8,0.1,3.8l63.2,34.8
							c1.8,1,4.7,0.9,6.4-0.2l47.2-30.2c1.7-1.1,1.7-2.8-0.1-3.8L396.8,727.7z"/>
					</g>
				</g>
			</g>
			<g>
				
					<linearGradient id="SVGID_56_" gradientUnits="userSpaceOnUse" x1="406.0226" y1="301.0585" x2="394.0428" y2="222.1563" gradientTransform="matrix(1 0 0 -1 0 988)">
					<stop  offset="0" style="stop-color:#15EDED"/>
					<stop  offset="1" style="stop-color:#029CF5"/>
				</linearGradient>
				<path class="st73" d="M455.8,758.3l0-5.6c0.2-0.8-0.3-1.6-1.3-2.2l-62.5-36c-1.8-1-4.6-1-6.4,0.1l-47.7,29.3
					c-0.9,0.6-1.4,1.3-1.3,2.1v5.8c0,0.1,0,0.2,0,0.3v0.1l0,0c0.1,0.6,0.5,1.2,1.3,1.7l62.5,36c1.8,1,4.6,1,6.4-0.1l47.7-29.4
					C455.4,759.8,455.8,759,455.8,758.3L455.8,758.3z"/>
				<g>
					<g>
						
							<linearGradient id="SVGID_57_" gradientUnits="userSpaceOnUse" x1="408.7121" y1="274.6895" x2="372.3604" y2="171.4165" gradientTransform="matrix(1 0 0 -1 0 988)">
							<stop  offset="0" style="stop-color:#15EDED"/>
							<stop  offset="1" style="stop-color:#029CF5"/>
						</linearGradient>
						<path class="st74" d="M391.9,714.4c-1.8-1-4.6-1-6.4,0.1l-47.7,29.3c-1.7,1.1-1.7,2.8,0.1,3.8l62.5,36c1.8,1,4.6,1,6.4-0.1
							l47.7-29.3c1.7-1.1,1.7-2.8-0.1-3.8L391.9,714.4z"/>
					</g>
				</g>
				<path class="st35" d="M400.5,769.3l-3.4-27.9l-17.4,2.8l4.3-12.4l-30.8,2.5l-15.5,9.5c-1.7,1.1-1.7,2.8,0.1,3.8l62.5,36
					c1.8,1,4.6,1,6.4-0.1l9.4-5.8l-0.9-11.2L400.5,769.3z"/>
				<ellipse class="st19" cx="414.7" cy="752.3" rx="14.4" ry="11"/>
			</g>
		</g>
		<g>
			<g class="st0">
				<g>
					<path class="st1" d="M253.8,633.5c1.6-1,4.4-1.1,6.1-0.2l46.4,26c1.7,0.9,1.7,2.6,0.1,3.6l-57.9,36.6c-1.6,1-4.4,1.1-6.1,0.2
						l-46.4-26c-1.7-0.9-1.7-2.6-0.1-3.6L253.8,633.5z"/>
				</g>
			</g>
			<g>
				<path class="st9" d="M198.9,668.8l-0.2-4.8c-0.2-0.7,0.2-1.4,1-1.9l51.9-32.8c1.5-0.9,3.9-1,5.4-0.1l41.6,23.3
					c0.8,0.5,1.2,1.1,1.2,1.7l0.2,4.9c0,0.1,0,0.2,0,0.3l0,0h0c-0.1,0.5-0.4,1.1-1.1,1.5l-51.9,32.8c-1.5,0.9-3.9,1-5.4,0.1
					l-41.6-23.3C199.3,670,198.9,669.4,198.9,668.8L198.9,668.8L198.9,668.8z"/>
				<g>
					<g>
						
							<linearGradient id="SVGID_58_" gradientUnits="userSpaceOnUse" x1="2311.8271" y1="334.2463" x2="2303.9131" y2="286.7614" gradientTransform="matrix(-1 0 0 -1 2560.291 988)">
							<stop  offset="0" style="stop-color:#EDF2F6"/>
							<stop  offset="1" style="stop-color:#E6E4EB"/>
						</linearGradient>
						<path class="st75" d="M251.7,629.3c1.5-0.9,3.9-1,5.4-0.1l41.6,23.3c1.5,0.9,1.6,2.3,0.1,3.2l-51.9,32.8
							c-1.5,0.9-3.9,1-5.4,0.1l-41.6-23.3c-1.5-0.9-1.6-2.3-0.1-3.2L251.7,629.3z"/>
					</g>
				</g>
			</g>
			<g>
				<path class="st9" d="M194.9,658.4l0-4.8c-0.1-0.7,0.2-1.4,1.1-1.9l53.2-30.6c1.5-0.9,4-0.8,5.4,0.1l40.6,25
					c0.8,0.5,1.1,1.1,1.1,1.8v4.9c0,0.1,0,0.2,0,0.3v0h0c-0.1,0.5-0.4,1-1.1,1.4l-53.2,30.6c-1.5,0.9-4,0.8-5.4-0.1l-40.6-25
					C195.2,659.7,194.9,659,194.9,658.4L194.9,658.4L194.9,658.4z"/>
				<g>
					<g>
						
							<linearGradient id="SVGID_59_" gradientUnits="userSpaceOnUse" x1="2316.9631" y1="351.0205" x2="2308.5774" y2="302.6118" gradientTransform="matrix(-1 0 0 -1 2560.291 988)">
							<stop  offset="0" style="stop-color:#EDF2F6"/>
							<stop  offset="1" style="stop-color:#E6E4EB"/>
						</linearGradient>
						<path class="st76" d="M249.3,621.1c1.5-0.9,4-0.8,5.4,0.1l40.6,25c1.5,0.9,1.5,2.4,0,3.2L242.1,680c-1.5,0.9-4,0.8-5.4-0.1
							L196,655c-1.5-0.9-1.5-2.4,0-3.2L249.3,621.1z"/>
					</g>
				</g>
			</g>
			<g>
				<g>
					<g>
						<path class="st1" d="M253.7,649.4c-0.1,0.1-0.2,0.2-0.2,0.3c0,0.1,0,0.2,0.2,0.3l1.3,0.9c0.1,0.1,0.3,0.1,0.4,0.1
							c0.2,0,0.3,0,0.5-0.1l1.5-0.9c0.1-0.1,0.2-0.2,0.2-0.3c0-0.1,0-0.2-0.2-0.3l-1.3-0.9c-0.1-0.1-0.3-0.1-0.5-0.1
							c-0.2,0-0.3,0-0.5,0.1L253.7,649.4z"/>
					</g>
					<g>
						<path class="st1" d="M246.3,638c-0.1,0.1-0.2,0.2-0.2,0.3c0,0.1,0,0.2,0.2,0.3l0.6,0.4c0.1,0.1,0.3,0.1,0.4,0.1
							c0.2,0,0.3,0,0.4-0.1l0.1-0.1c0.7-0.4,1.4-0.6,2-0.6c0.6,0,1.3,0.2,2,0.5c0.7,0.3,1.6,0.9,2.6,1.7c1.4,1,2.9,1.4,4.6,1.1
							c-0.6,1-0.2,2.1,1.3,3.1c1.1,0.8,1.9,1.4,2.3,1.9c0.5,0.5,0.7,0.9,0.6,1.3c-0.1,0.4-0.5,0.8-1.2,1.3l-0.1,0.1
							c-0.1,0.1-0.2,0.2-0.2,0.3c0,0.1,0,0.2,0.1,0.3l0.6,0.5c0.1,0.1,0.3,0.1,0.4,0.1c0.2,0,0.3,0,0.5-0.1l0.1-0.1
							c1.1-0.7,1.8-1.4,2-2c0.2-0.7,0.1-1.4-0.4-2.1c-0.5-0.7-1.4-1.5-2.6-2.3c-0.6-0.4-1-0.9-1.2-1.2c-0.2-0.4-0.1-0.8,0.1-1.2
							l0.1-0.1c0.1-0.2,0.1-0.4,0.1-0.5c0-0.1-0.1-0.2-0.3-0.3l-0.3-0.2c-0.2-0.1-0.3-0.2-0.5-0.2c-0.2,0-0.4,0-0.7,0l-0.3,0
							c-0.7,0.1-1.3,0.1-1.8-0.1c-0.5-0.1-1.1-0.4-1.7-0.9c-1.2-0.9-2.3-1.5-3.3-1.9c-1-0.4-2-0.5-3.1-0.4c-1,0.1-2.1,0.5-3.2,1.2
							L246.3,638z"/>
					</g>
					<g>
						<path class="st1" d="M248.2,652.8c-0.1,0.1-0.2,0.2-0.2,0.3c0,0.1,0,0.2,0.2,0.3l1.3,0.9c0.1,0.1,0.3,0.1,0.4,0.1
							c0.2,0,0.3,0,0.5-0.1l1.5-0.9c0.1-0.1,0.2-0.2,0.2-0.3c0-0.1,0-0.2-0.2-0.3l-1.3-0.9c-0.1-0.1-0.3-0.1-0.5-0.1
							c-0.2,0-0.3,0-0.5,0.1L248.2,652.8z"/>
					</g>
					<g>
						<path class="st1" d="M227.4,649.5c-1.1,0.7-1.8,1.4-2,2c-0.2,0.7-0.1,1.4,0.4,2c0.5,0.7,1.4,1.5,2.6,2.3
							c0.6,0.4,1,0.9,1.2,1.2c0.1,0.4,0.1,0.8-0.1,1.2l-0.1,0.1c-0.1,0.2-0.2,0.4-0.1,0.5c0,0.1,0.1,0.2,0.3,0.3l0.3,0.2
							c0.1,0.1,0.3,0.2,0.5,0.2c0.2,0,0.4,0,0.8,0l0.2,0c0.7-0.1,1.3-0.1,1.8,0.1c0.5,0.1,1.1,0.4,1.7,0.9c1.2,0.9,2.3,1.5,3.3,1.9
							c1,0.4,2,0.5,3,0.5c1-0.1,2.1-0.5,3.2-1.2l0.1-0.1c0.1-0.1,0.2-0.2,0.2-0.3c0-0.1,0-0.2-0.1-0.3l-0.6-0.5
							c-0.1-0.1-0.3-0.1-0.4-0.1c-0.2,0-0.3,0-0.5,0.1l-0.1,0.1c-0.7,0.4-1.4,0.6-2,0.7c-0.6,0-1.3-0.2-2-0.5
							c-0.7-0.3-1.6-0.9-2.7-1.7c-1.4-1-2.9-1.4-4.5-1.1c0.6-1,0.2-2.1-1.3-3.1c-1.1-0.8-1.8-1.4-2.3-1.9c-0.5-0.5-0.7-0.9-0.6-1.3
							c0.1-0.4,0.4-0.8,1.1-1.3l0.1-0.1c0.1-0.1,0.2-0.2,0.2-0.3c0-0.1,0-0.2-0.1-0.3l-0.6-0.4c-0.1-0.1-0.3-0.1-0.4-0.1
							c-0.2,0-0.3,0-0.5,0.1L227.4,649.5z"/>
					</g>
					<g>
						<path class="st1" d="M242.6,656.2c-0.2,0.1-0.2,0.2-0.2,0.3c0,0.1,0,0.2,0.2,0.3l1.3,0.9c0.1,0.1,0.3,0.1,0.4,0.1
							c0.2,0,0.3,0,0.5-0.1l1.5-0.9c0.1-0.1,0.2-0.2,0.2-0.3c0-0.1,0-0.2-0.2-0.3l-1.3-0.9c-0.1-0.1-0.3-0.1-0.5-0.1
							c-0.2,0-0.3,0-0.5,0.1L242.6,656.2z"/>
					</g>
				</g>
			</g>
		</g>
		<g>
			<g class="st0">
				<g>
					<path class="st1" d="M156.6,730.7c-0.9-0.6-2.5-0.6-3.5-0.1l-26.5,14.9c-1,0.5-1,1.5-0.1,2.1l33.1,20.9
						c0.9,0.6,2.5,0.6,3.5,0.1l26.5-14.9c1-0.5,1-1.5,0.1-2.1L156.6,730.7z"/>
				</g>
			</g>
			<g>
				<path class="st9" d="M188,750.8l0.1-2.7c0.1-0.4-0.1-0.8-0.6-1.1l-29.7-18.8c-0.8-0.5-2.2-0.6-3.1-0.1l-23.8,13.3
					c-0.5,0.3-0.7,0.6-0.7,1l-0.1,2.8c0,0.1,0,0.1,0,0.2l0,0h0c0,0.3,0.2,0.6,0.6,0.8l29.7,18.8c0.8,0.5,2.2,0.6,3.1,0.1l23.8-13.3
					C187.8,751.6,188,751.2,188,750.8L188,750.8z"/>
				<g>
					<g>
						
							<linearGradient id="SVGID_60_" gradientUnits="userSpaceOnUse" x1="41.108" y1="245.7431" x2="36.582" y2="218.5867" gradientTransform="matrix(1 0 0 -1 118.5625 988)">
							<stop  offset="0" style="stop-color:#EDF2F6"/>
							<stop  offset="1" style="stop-color:#E6E4EB"/>
						</linearGradient>
						<path class="st77" d="M157.8,728.2c-0.8-0.5-2.2-0.6-3.1-0.1l-23.8,13.3c-0.9,0.5-0.9,1.3,0,1.8l29.7,18.8
							c0.8,0.5,2.2,0.6,3.1,0.1l23.8-13.3c0.9-0.5,0.9-1.3,0-1.9L157.8,728.2z"/>
					</g>
				</g>
			</g>
			<g>
				
					<linearGradient id="SVGID_61_" gradientUnits="userSpaceOnUse" x1="157.0984" y1="269.5439" x2="163.9621" y2="230.895" gradientTransform="matrix(1 0 0 -1 0 988)">
					<stop  offset="0" style="stop-color:#AFF57A"/>
					<stop  offset="1" style="stop-color:#54D169"/>
				</linearGradient>
				<path class="st78" d="M190.3,744.9l0-2.7c0.1-0.4-0.1-0.8-0.6-1.1l-30.4-17.5c-0.9-0.5-2.3-0.5-3.1,0l-23.2,14.3
					c-0.5,0.3-0.7,0.6-0.6,1v2.8c0,0.1,0,0.1,0,0.2v0h0c0,0.3,0.3,0.6,0.6,0.8l30.4,17.5c0.9,0.5,2.3,0.5,3.1,0l23.2-14.3
					C190.1,745.6,190.3,745.3,190.3,744.9L190.3,744.9L190.3,744.9z"/>
				<g>
					<g>
						
							<linearGradient id="SVGID_62_" gradientUnits="userSpaceOnUse" x1="165.1515" y1="272.3751" x2="156.0489" y2="214.3291" gradientTransform="matrix(1 0 0 -1 0 988)">
							<stop  offset="0" style="stop-color:#AFF57A"/>
							<stop  offset="1" style="stop-color:#54D169"/>
						</linearGradient>
						<path class="st79" d="M159.2,723.6c-0.9-0.5-2.3-0.5-3.1,0l-23.2,14.3c-0.8,0.5-0.8,1.4,0,1.9l30.4,17.5
							c0.9,0.5,2.3,0.5,3.1,0l23.2-14.3c0.8-0.5,0.8-1.4,0-1.9L159.2,723.6z"/>
					</g>
				</g>
			</g>
			<g>
				<g>
					<g>
						<path class="st44" d="M166.6,739.4c0.1,0,0.1,0.1,0.1,0.1c0,0,0,0.1-0.1,0.1l-6.1,3.5c-0.1,0-0.1,0.1-0.2,0.1
							c-0.1,0-0.2,0-0.2-0.1l-0.4-0.2c-0.1,0-0.1-0.1-0.1-0.1c0,0,0-0.1,0.1-0.1l2.7-1.6l-3.2-1.8l-2.7,1.6c-0.1,0-0.1,0.1-0.2,0.1
							c-0.1,0-0.2,0-0.2-0.1l-0.4-0.2c-0.1,0-0.1-0.1-0.1-0.1c0,0,0-0.1,0.1-0.1l6.1-3.5c0.1,0,0.1-0.1,0.2-0.1c0.1,0,0.1,0,0.2,0
							l0.4,0.2c0.1,0,0.1,0.1,0.1,0.1c0,0,0,0.1-0.1,0.1l-2.6,1.5l3.2,1.8l2.6-1.5c0.1,0,0.1-0.1,0.2-0.1c0.1,0,0.2,0,0.2,0
							L166.6,739.4z"/>
					</g>
					<g>
						<path class="st44" d="M159.7,736.1c0.1,0.4-0.2,0.8-0.9,1.2c-0.6,0.4-1.3,0.6-2.1,0.5c-0.7,0-1.4-0.2-2.1-0.6l-1.6-0.9
							l-2.3,1.4c-0.1,0-0.1,0.1-0.2,0.1c-0.1,0-0.1,0-0.2,0l-0.5-0.3c-0.1,0-0.1-0.1-0.1-0.1c0,0,0-0.1,0.1-0.1l6.1-3.5
							c0.1,0,0.1-0.1,0.2-0.1c0.1,0,0.1,0,0.2,0l2.3,1.3C159.3,735.3,159.7,735.7,159.7,736.1z M155.4,736.8
							c0.9,0.5,1.8,0.5,2.6,0.1c0.4-0.2,0.6-0.5,0.6-0.7c0-0.2-0.3-0.5-0.7-0.8l-1.6-0.9l-2.4,1.4L155.4,736.8L155.4,736.8z"/>
					</g>
					<g>
						<path class="st44" d="M172,743c0.1,0.4-0.2,0.8-0.9,1.2c-0.6,0.4-1.3,0.6-2.1,0.5c-0.7,0-1.4-0.2-2.1-0.6l-1.6-0.9l-2.3,1.4
							c-0.1,0-0.1,0.1-0.2,0.1c-0.1,0-0.1,0-0.2-0.1l-0.4-0.3c-0.1,0-0.1-0.1-0.1-0.1c0,0,0-0.1,0.1-0.1l6.1-3.5
							c0.1,0,0.1-0.1,0.2-0.1c0.1,0,0.1,0,0.2,0l2.3,1.3C171.6,742.2,171.9,742.6,172,743z M167.6,743.6c0.9,0.5,1.8,0.5,2.6,0.1
							c0.4-0.2,0.6-0.5,0.6-0.7c0-0.2-0.3-0.5-0.7-0.8l-1.6-0.9l-2.4,1.4L167.6,743.6L167.6,743.6z"/>
					</g>
				</g>
			</g>
		</g>
		<g>
			<ellipse class="st8" cx="245.8" cy="793.2" rx="27.8" ry="16.1"/>
			<path class="st9" d="M271.4,764.4l-12.3-1l-8.7-0.8l-18,0.6l-11.4,0.8l-1.8,1.2l3.2,26.4c0,0,0,0,0,0c0,7.3,10.3,13.3,22.9,13.3
				c12.3,0,22.3-5.6,22.9-12.6c0,0,0,0,0,0L271.4,764.4z"/>
			<path class="st10" d="M271.4,764.9c0,7.6-11.7,13.7-26.1,13.7c-14.4,0-26.1-6.1-26.1-13.7c0-7.6,11.7-13.7,26.1-13.7
				C259.7,751.2,271.4,757.3,271.4,764.9z"/>
			<ellipse class="st11" cx="245.3" cy="764.9" rx="17" ry="8.9"/>
		</g>
		<g>
			<g class="st0">
				<g>
					<path class="st1" d="M307.8,700.7c-0.8-0.5-2.1-0.5-2.9-0.1l-22.5,12.6c-0.8,0.5-0.8,1.2,0,1.7l28.1,17.7
						c0.8,0.5,2.1,0.5,2.9,0.1l22.5-12.6c0.8-0.5,0.8-1.2,0-1.8L307.8,700.7z"/>
				</g>
			</g>
			<g>
				<path class="st9" d="M334.4,717.8l0.1-2.3c0.1-0.3-0.1-0.7-0.5-0.9l-25.2-15.9c-0.7-0.5-1.9-0.5-2.6-0.1L286,709.8
					c-0.4,0.2-0.6,0.5-0.6,0.8l-0.1,2.4c0,0,0,0.1,0,0.1v0h0c0,0.3,0.2,0.5,0.5,0.7l25.2,15.9c0.7,0.5,1.9,0.5,2.6,0.1l20.2-11.3
					C334.2,718.4,334.4,718.1,334.4,717.8L334.4,717.8L334.4,717.8z"/>
				<g>
					<g>
						
							<linearGradient id="SVGID_63_" gradientUnits="userSpaceOnUse" x1="191.8279" y1="277.5079" x2="187.9924" y2="254.4948" gradientTransform="matrix(1 0 0 -1 118.5625 988)">
							<stop  offset="0" style="stop-color:#EDF2F6"/>
							<stop  offset="1" style="stop-color:#E6E4EB"/>
						</linearGradient>
						<path class="st80" d="M308.8,698.6c-0.7-0.5-1.9-0.5-2.6-0.1L286,709.8c-0.7,0.4-0.8,1.1,0,1.6l25.2,15.9
							c0.7,0.5,1.9,0.5,2.6,0.1l20.2-11.3c0.7-0.4,0.8-1.1,0-1.6L308.8,698.6z"/>
					</g>
				</g>
			</g>
			<g>
				
					<linearGradient id="SVGID_64_" gradientUnits="userSpaceOnUse" x1="308.2117" y1="297.6768" x2="314.028" y2="264.9254" gradientTransform="matrix(1 0 0 -1 0 988)">
					<stop  offset="0" style="stop-color:#59C2FF"/>
					<stop  offset="1" style="stop-color:#1270E3"/>
				</linearGradient>
				<path class="st81" d="M336.3,712.7l0-2.3c0.1-0.3-0.1-0.7-0.5-0.9L310,694.7c-0.7-0.4-1.9-0.4-2.6,0l-19.7,12.1
					c-0.4,0.2-0.6,0.5-0.5,0.9v2.4c0,0,0,0.1,0,0.1v0h0c0,0.3,0.2,0.5,0.5,0.7l25.8,14.9c0.7,0.4,1.9,0.4,2.6,0l19.7-12.1
					C336.2,713.4,336.4,713,336.3,712.7L336.3,712.7z"/>
				<g>
					<g>
						
							<linearGradient id="SVGID_65_" gradientUnits="userSpaceOnUse" x1="315.0355" y1="300.0764" x2="307.3212" y2="250.8837" gradientTransform="matrix(1 0 0 -1 0 988)">
							<stop  offset="0" style="stop-color:#59C2FF"/>
							<stop  offset="1" style="stop-color:#1270E3"/>
						</linearGradient>
						<path class="st82" d="M310,694.7c-0.7-0.4-1.9-0.4-2.6,0l-19.7,12.1c-0.7,0.4-0.7,1.1,0,1.6l25.8,14.9c0.7,0.4,1.9,0.4,2.6,0
							l19.7-12.1c0.7-0.4,0.7-1.1,0-1.6L310,694.7z"/>
					</g>
				</g>
			</g>
			<g>
				<g>
					<g>
						<path class="st44" d="M309.6,703.7c0.5,0.3,0.8,0.5,0.9,0.8c0.2,0.3,0.2,0.6,0.1,0.8c-0.1,0.3-0.3,0.5-0.6,0.7l-0.2,0l-0.2,0
							l-0.4-0.2l-0.1-0.1c0,0,0-0.1,0.1-0.1c0.3-0.3,0.5-0.6,0.4-0.8c-0.1-0.2-0.3-0.5-0.7-0.7c-0.9-0.5-1.9-0.4-3,0.2
							c-0.2,0.1-0.4,0.2-0.7,0.4c-0.3,0.2-0.5,0.3-0.7,0.4c-1,0.7-1.1,1.3-0.2,1.8c0.4,0.2,0.8,0.3,1.2,0.4c0.4,0,0.9-0.1,1.4-0.3
							c0.1,0,0.2,0,0.2,0l0.2,0l0.4,0.2l0.1,0.1l-0.1,0.1c-0.3,0.2-0.7,0.3-1.2,0.4c-0.4,0.1-0.9,0.1-1.4,0c-0.5-0.1-1-0.2-1.5-0.5
							c-0.7-0.4-1-0.8-1-1.2c0-0.4,0.4-0.9,1-1.3c0.1-0.1,0.4-0.2,0.7-0.4c0.3-0.2,0.6-0.4,0.7-0.5c0.7-0.4,1.5-0.6,2.2-0.7
							C308.2,703.2,308.9,703.3,309.6,703.7z"/>
					</g>
					<g>
						<path class="st44" d="M319.5,709.1c0.4,0.2,0.7,0.5,0.8,0.7c0.1,0.3,0.2,0.5,0.1,0.7c-0.1,0.2-0.2,0.4-0.4,0.6l-0.2,0.1
							l-0.2,0l-0.4-0.2l-0.1-0.1l0-0.1c0.2-0.2,0.3-0.4,0.2-0.6c-0.1-0.2-0.3-0.4-0.6-0.6c-0.4-0.2-0.7-0.3-1.1-0.3
							c-0.4,0-0.7,0.1-1,0.2c-0.2,0.1-0.3,0.2-0.3,0.4c0,0.1,0,0.3,0.1,0.4c0.1,0.2,0.3,0.4,0.6,0.7c0.3,0.3,0.5,0.6,0.7,0.8
							c0.1,0.2,0.2,0.4,0.1,0.6c-0.1,0.2-0.3,0.4-0.6,0.6c-0.5,0.3-1.1,0.5-1.8,0.4c-0.7,0-1.3-0.2-2-0.6c-0.4-0.2-0.7-0.5-0.9-0.7
							c-0.2-0.3-0.2-0.5-0.2-0.7c0.1-0.2,0.2-0.4,0.5-0.6l0.2,0l0.2,0l0.4,0.2c0.1,0,0.1,0.1,0,0.2c-0.2,0.2-0.2,0.4-0.2,0.6
							c0.1,0.2,0.3,0.4,0.7,0.7c0.4,0.2,0.9,0.4,1.3,0.4c0.4,0,0.7-0.1,1-0.2c0.2-0.1,0.3-0.2,0.3-0.4c0-0.1,0-0.3-0.2-0.5
							c-0.1-0.2-0.3-0.4-0.6-0.7c-0.3-0.3-0.5-0.5-0.6-0.8c-0.1-0.2-0.1-0.4,0-0.6c0.1-0.2,0.3-0.4,0.6-0.6c0.3-0.2,0.6-0.3,1-0.4
							c0.4-0.1,0.8-0.1,1.2,0C318.7,708.7,319.1,708.9,319.5,709.1z"/>
					</g>
					<g>
						<path class="st44" d="M314.6,706.4c0.4,0.2,0.7,0.5,0.8,0.7c0.1,0.2,0.2,0.5,0.1,0.7c-0.1,0.2-0.2,0.4-0.4,0.6l-0.2,0.1
							l-0.2,0l-0.4-0.2l-0.1-0.1l0-0.1c0.2-0.2,0.3-0.3,0.2-0.6c-0.1-0.2-0.3-0.4-0.6-0.6c-0.4-0.2-0.7-0.3-1.1-0.3
							c-0.4,0-0.7,0.1-1,0.2c-0.2,0.1-0.3,0.2-0.3,0.4c0,0.1,0,0.3,0.1,0.4c0.1,0.2,0.3,0.4,0.6,0.7c0.3,0.3,0.5,0.6,0.7,0.8
							c0.1,0.2,0.1,0.4,0.1,0.6c-0.1,0.2-0.3,0.4-0.6,0.6c-0.5,0.3-1.1,0.5-1.8,0.4c-0.7,0-1.3-0.2-2-0.6c-0.4-0.2-0.7-0.5-0.9-0.7
							c-0.2-0.3-0.2-0.5-0.2-0.7c0.1-0.2,0.2-0.4,0.5-0.6l0.2,0l0.2,0l0.4,0.2c0.1,0.1,0.1,0.1,0,0.2c-0.2,0.2-0.2,0.4-0.2,0.6
							c0.1,0.2,0.3,0.5,0.7,0.7c0.4,0.2,0.9,0.4,1.3,0.4c0.4,0,0.7-0.1,1-0.2c0.2-0.1,0.3-0.2,0.3-0.4c0-0.1,0-0.3-0.2-0.5
							c-0.1-0.2-0.3-0.4-0.6-0.7c-0.3-0.3-0.5-0.5-0.6-0.8c-0.1-0.2-0.1-0.4,0-0.6c0.1-0.2,0.3-0.4,0.6-0.6c0.3-0.2,0.6-0.3,1-0.4
							c0.4-0.1,0.8-0.1,1.2,0C313.8,706.1,314.2,706.2,314.6,706.4z"/>
					</g>
				</g>
			</g>
		</g>
	</g>
</g>
</svg>
