<svg xmlns="http://www.w3.org/2000/svg" viewBox="0 0 1080 1080"><defs><style>.cls-1{fill:#ce1212;}.cls-2{fill:#810000;}.cls-3{fill:#1c1c1c;}</style></defs><title>logo_truco</title><g id="Capa_2" data-name="Capa 2"><path class="cls-1" d="M559.31,1024.78H732V293.18S724.46,155.7,832,137.32c0,0-281.81-33.54-272.72,239.19Z"/></g><g id="Capa_3" data-name="Capa 3"><path class="cls-2" d="M748.82,393.18V565.9H871.08s107.34-13.63,140.15-86.36-13.42-127.27-13.42-127.27-14.91,37.88-90.95,40.91Z"/></g><g id="Capa_4" data-name="Capa 4"><path class="cls-3" d="M748.82,315.9s-14-161.5,106.06-171.21a171.07,171.07,0,0,1,90.72,17.54c24.21,12.19,45.41,29.82,63.13,50.22,11.73,13.5,22.62,27.9,31.12,43.67,8.66,16.08,12.87,32.34,15.58,50.25.61,4.06,1.11,8.13,1.55,12.2a313.56,313.56,0,0,1,1.74,33.84c-.09,29.46-4.37,59.33-15.39,86.79-8,19.87-19.62,38.26-34.94,53.3,0,0,55.58-66-6.54-140.23,0,0-24.24-37.88-89.39-40.91S748.82,315.9,748.82,315.9Z"/></g><g id="Capa_5" data-name="Capa 5"><path class="cls-3" d="M357.07,383.14H541s14-147.09-76.24-201C367.83,124.19,253,144.41,253,144.42c20.64-3.64,38.83,6.17,53.6,19.35C367,217.7,355.19,311.7,357.07,383.14Z"/><rect class="cls-3" x="360.15" y="580.4" width="179.89" height="444.39"/></g><g id="Capa_6" data-name="Capa 6"><path class="cls-1" d="M337.53,314.57c8.31,0-1.66-50.85-2.49-55.52-6.93-39-22.82-83.36-59.55-103.33C230.82,131.43,170.16,145.51,129.15,171,86.41,197.59,68.26,229.31,61.52,279c0,0-5.74,42.32,26.26,73.32,0,0,30.37-39.4,95.2-37.7H337.53Z"/></g><g id="Capa_7" data-name="Capa 7"><path class="cls-2" d="M67.14,229.41S-8,372.61,169.45,396.65H540V565.9H236.09c-33.32,0-60.65-1.35-91.05-16.18a260.22,260.22,0,0,1-53.49-34.48c-41.24-34.7-62.15-87.37-64.11-141.79C25.69,324.66,42.08,269.71,67.14,229.41Z"/></g></svg>