<svg xmlns="http://www.w3.org/2000/svg" viewBox="0 0 176.79 171.96"><defs><style>.cls-1{fill:#646463;}.cls-2{fill:#fff;}.cls-3{fill:#991915;}.cls-4{fill:#e52722;}.cls-5{fill:#ffe006;}.cls-6{fill:none;stroke:#fff;stroke-linecap:round;stroke-linejoin:round;stroke-width:3px;}.cls-7{fill:#4bb7e0;}</style></defs><title>Recurso 6</title><g id="Capa_2" data-name="Capa 2"><g id="Capa_12" data-name="Capa 12"><path class="cls-1" d="M109.8,140s-2.43,27.52,15.39,32c0,0,15.56-1.46,6.85-19.65s-10.61-20.05-19.5-17.45Z"/><path class="cls-1" d="M145.36,126.29s-5,6.35,5.81,13.4c0,0,13.74,19.54,23.39,7.92s-15.17-24.26-15.17-24.26S150.68,118.45,145.36,126.29Z"/><path class="cls-2" d="M98.09,112.73l14.45,33.64s3.74,4.08,4.85-2.6l-13.92-31Z"/><path class="cls-2" d="M132.22,113s15.24,16.88,18.95,17.13,5.57-1.62,2.6-5.33-8.61-3.14-17.67-15.31-8.31-3.62-8.31-3.62Z"/><path class="cls-2" d="M70.18,61.94l-52.74-31s2.76,5.26-1.74,4.68S71.55,67.51,71.55,67.51Z"/><polygon class="cls-3" points="153.03 34.14 139.29 17.56 123.33 49.48 136.78 112.73 144.12 112.22 161.19 98.11 153.03 34.14"/><polygon class="cls-4" points="62.82 44.28 134.1 36.49 144.12 112.22 74.33 117.04 62.82 44.28"/><polygon class="cls-4" points="78.04 23.5 62.82 44.28 134.1 36.49 139.29 17.56 78.04 23.5"/><path class="cls-5" d="M81.88,25.17s5.73-33.94,23.2-19.12c0,0,16.15-21,25.8,15.34l-5.94.25S119-.14,112.54,8a15.62,15.62,0,0,0,0,14.11l-7.46,1.6L99.7,25.17s7.67-11-1.61-17.14c0,0-8,1.55-8.29,17.14Z"/><circle class="cls-2" cx="96.11" cy="25.17" r="8.97"/><circle class="cls-2" cx="114.71" cy="23.74" r="8.97"/><path class="cls-2" d="M161.08,42.6a57.88,57.88,0,0,0-11.35-4.55c-.29-.08-5.24-1.16-5.24-1.19v5.2c9.19,2.16,22.51,6.47,23.12,17.79.36,6.59-2.49,9.12-10,10.47l.45,3.57c6.08-.6,9.47-3,11.24-4.55,4.07-3.67,3.54-10.8,1.91-15.46a19.72,19.72,0,0,0-7.93-10C162.61,43.46,161.86,43,161.08,42.6Z"/><path class="cls-2" d="M14.18,48S10.2,60.38,26.55,58s9.94-18.38,9.94-18.38S35.6,20.1,24.34,21.43a8.67,8.67,0,0,0-10.71.67c-5.38,4.59-11,5.21-13.4,15.21S14.18,48,14.18,48Z"/><path class="cls-1" d="M16.64,45.87S31.21,52,27.92,34.45l2.65-2.9-1,4.08S27.55,57.62,16.64,45.87Z"/><path class="cls-1" d="M17.41,28.46s-6.9,4.43-2.33,14.89C15.08,43.35,14.49,34.22,17.41,28.46Z"/><path class="cls-1" d="M8.69,28.16s-9.88,7.56,2.14,18.54C10.83,46.7,2.1,37,8.69,28.16Z"/><path class="cls-6" d="M81.88,70.77s5.55,17.72,23.2,18.28,17.11-21.54,17.11-21.54"/><line class="cls-6" x1="78.24" y1="70.77" x2="85" y2="70.21"/><line class="cls-6" x1="118.5" y1="67.51" x2="125.26" y2="67.51"/><circle class="cls-7" cx="92.81" cy="25.82" r="5.67"/><circle class="cls-7" cx="111.76" cy="24.33" r="5.67"/><circle cx="91.69" cy="25.82" r="2.64"/><circle cx="109.68" cy="24.33" r="2.64"/></g></g></svg>