<svg xmlns="http://www.w3.org/2000/svg" viewBox="0 0 192.19 180.89"><defs><style>.cls-1{fill:#646463;}.cls-2{fill:#fff;}.cls-3{fill:#991915;}.cls-4{fill:#e52722;}.cls-5{fill:#ffe006;}.cls-6{fill:none;stroke:#fff;stroke-linecap:round;stroke-linejoin:round;stroke-width:3px;}.cls-7{fill:#4bb7e0;}</style></defs><title>Recurso 4</title><g id="Capa_2" data-name="Capa 2"><g id="Capa_12" data-name="Capa 12"><path class="cls-1" d="M116.15,145.32a2,2,0,0,0-2.32,1.17c-4.35,7.69-11.62,22-4.84,29.74a13.84,13.84,0,0,0,8.77,4.48c4.25.41,11.2-4,10.84-12.52-.17-4.05-4.22-25.21-7.59-23.49A6.4,6.4,0,0,1,116.15,145.32Z"/><path class="cls-1" d="M139.91,145.93a1.66,1.66,0,0,0-1.77,1.12c-3.6,8.2-9.88,24-2.33,30.71a13,13,0,0,0,9.11,3.11c4.26-.23,10.77-5.65,9.65-14.09-.53-4-6.45-24.39-9.64-22.17A6.49,6.49,0,0,1,139.91,145.93Z"/><path class="cls-2" d="M89.91,62.24l-52.74-31s2.76,5.26-1.74,4.69,55.85,31.9,55.85,31.9Z"/><path class="cls-2" d="M114.05,110l1.79,40.21s1.8,5,5,0L118.21,110Z"/><path class="cls-2" d="M138.24,109.91,140,150.13s1.8,5,4.95,0l-2.58-40.22Z"/><polygon class="cls-3" points="172.76 34.44 159.02 17.86 143.06 49.78 156.51 113.03 163.85 112.52 180.93 98.41 172.76 34.44"/><polygon class="cls-4" points="82.55 44.59 153.83 36.79 163.85 112.52 94.06 117.34 82.55 44.59"/><polygon class="cls-4" points="97.77 23.8 82.55 44.59 153.83 36.79 159.02 17.86 97.77 23.8"/><path class="cls-5" d="M101.61,25.47s5.73-33.94,23.2-19.12c0,0,16.15-21,25.8,15.34l-5.94.25s-6-21.78-12.4-13.61a15.62,15.62,0,0,0,0,14.11l-7.46,1.61-5.38,1.42s7.67-10.95-1.61-17.14c0,0-8,1.55-8.29,17.14Z"/><circle class="cls-2" cx="115.84" cy="25.47" r="8.97"/><circle class="cls-2" cx="134.44" cy="24.05" r="8.97"/><path class="cls-2" d="M180.81,42.9a57,57,0,0,0-11.35-4.54c-.29-.09-5.24-1.17-5.24-1.2v5.2c9.19,2.16,22.51,6.47,23.12,17.79.36,6.59-2.49,9.12-10,10.47l.45,3.57c6.08-.6,9.47-2.94,11.24-4.55,4.07-3.67,3.54-10.8,1.91-15.46a19.65,19.65,0,0,0-7.93-10C182.34,43.76,181.59,43.32,180.81,42.9Z"/><path class="cls-6" d="M101.61,71.07s5.56,17.72,23.2,18.28,17.11-21.54,17.11-21.54"/><line class="cls-6" x1="97.97" y1="71.07" x2="104.73" y2="70.51"/><line class="cls-6" x1="138.23" y1="67.81" x2="144.99" y2="67.81"/><circle class="cls-7" cx="112.54" cy="26.12" r="5.67"/><circle class="cls-7" cx="131.49" cy="24.63" r="5.67"/><circle cx="111.42" cy="26.12" r="2.64"/><circle cx="129.42" cy="24.63" r="2.64"/><path class="cls-2" d="M50.16,32.13c2.86,20-19.4,14.75-28.67,7.1-1.33-1.09-15.63,1.38-18.18-7.11-1.82-6,16.07-.6,16.58-2.54,0,0-15.62-2.62-19.19-10.41-4.47-9.77,13.61-2.06,18.84,1.11s-7.63-8.07-9.64-10.2c-3.45-3.67-3.23-9,3-6.81,2.74,1,9.61,7.4,17.1,11.41C30,14.68,28.6-.09,34.12,0,39.21.08,37.75,15.47,42,20,45.69,23.89,49.29,26,50.16,32.13Z"/></g></g></svg>