<svg xmlns="http://www.w3.org/2000/svg" viewBox="0 0 181.83 177.22"><defs><style>.cls-1{fill:#646463;}.cls-2{fill:#fff;}.cls-3{fill:#991915;}.cls-4{fill:#e52722;}.cls-5{fill:#ffe006;}.cls-6{fill:none;stroke:#fff;stroke-linecap:round;stroke-linejoin:round;stroke-width:3px;}.cls-7{fill:#4bb7e0;}</style></defs><title>Recurso 5</title><g id="Capa_2" data-name="Capa 2"><g id="Capa_12" data-name="Capa 12"><path class="cls-1" d="M98.48,151.16s-16.63,4-20.51,14c-2.54,6.49,1.31,10.91,7.3,11.89,8.32,1.37,24.32-4.7,23.7-15.66-.42-7.34-4.47-9.91-4.76-9.93Z"/><path class="cls-2" d="M107.06,107.2s-8.57,17.63-6.79,46.45a1.64,1.64,0,0,0,1.63,1.53h0a1.63,1.63,0,0,0,1.63-1.63c0-6.27-1.43-29.77,8-46.35C122.18,88.32,107.06,107.2,107.06,107.2Z"/><path class="cls-1" d="M138.61,149.66s16.63,4,20.52,14c2.54,6.49-1.32,10.91-7.3,11.89-8.32,1.37-24.33-4.7-23.71-15.66.42-7.35,4.48-9.91,4.77-9.93Z"/><path class="cls-2" d="M130,105.7s8.57,17.63,6.8,46.44a1.64,1.64,0,0,1-1.63,1.53h0a1.62,1.62,0,0,1-1.63-1.63c0-6.26,1.43-29.76-8-46.34C114.92,86.82,130,105.7,130,105.7Z"/><path class="cls-2" d="M79.55,61.94l-52.74-31s2.76,5.26-1.74,4.68S80.92,67.51,80.92,67.51Z"/><polygon class="cls-3" points="162.4 34.14 148.66 17.56 132.7 49.48 146.15 112.73 153.49 112.22 170.56 98.11 162.4 34.14"/><polygon class="cls-4" points="72.19 44.28 143.47 36.49 153.49 112.22 83.7 117.04 72.19 44.28"/><polygon class="cls-4" points="87.41 23.5 72.19 44.28 143.47 36.49 148.66 17.56 87.41 23.5"/><path class="cls-5" d="M91.25,25.17S97-8.77,114.45,6.05c0,0,16.15-21,25.8,15.34l-5.94.25S128.33-.14,121.91,8a15.62,15.62,0,0,0,0,14.11l-7.46,1.6-5.38,1.43s7.67-11-1.61-17.14c0,0-8,1.55-8.29,17.14Z"/><circle class="cls-2" cx="105.48" cy="25.17" r="8.97"/><circle class="cls-2" cx="124.08" cy="23.74" r="8.97"/><path class="cls-2" d="M170.44,42.6a57.55,57.55,0,0,0-11.34-4.55c-.29-.08-5.24-1.16-5.24-1.19v5.2c9.19,2.16,22.51,6.47,23.12,17.79.35,6.59-2.49,9.12-10,10.47l.45,3.57c6.08-.6,9.47-3,11.24-4.55,4.07-3.67,3.53-10.8,1.9-15.46a19.65,19.65,0,0,0-7.92-10C172,43.46,171.23,43,170.44,42.6Z"/><path class="cls-6" d="M91.25,70.77s5.55,17.72,23.2,18.28,17.11-21.54,17.11-21.54"/><line class="cls-6" x1="87.61" y1="70.77" x2="94.36" y2="70.21"/><line class="cls-6" x1="127.87" y1="67.51" x2="134.63" y2="67.51"/><circle class="cls-7" cx="102.18" cy="25.82" r="5.67"/><circle class="cls-7" cx="121.13" cy="24.33" r="5.67"/><circle cx="101.05" cy="25.82" r="2.64"/><circle cx="119.05" cy="24.33" r="2.64"/><path class="cls-2" d="M31.45,46.05c21.5-3.14,3.92-32.93-5.58-26.82-3.07,2-12.78-11-18.15-10.57-8.58.73,4.35,10.77,7.93,14.42s-7.89-4.51-10-5.7c-3.58-2-7.67-.57-4.6,4.14C2.43,23.59,9.68,27,13.6,33.21a6.2,6.2,0,0,0,.77,5.88C16.89,42.19,24.9,47,31.45,46.05Z"/><path class="cls-1" d="M25.87,19.23a13.9,13.9,0,0,0,3,9c3.45,4.56-6.51-9.93-6.51-9.93Z"/><path class="cls-1" d="M21.42,33.45s-4.87-2.37-7.82-.24l-.73-1.07-.41-.55S17.68,31.61,21.42,33.45Z"/></g></g></svg>